<?xml version="1.0" encoding="UTF-8" standalone="no"?>
<!-- Created with Inkscape (http://www.inkscape.org/) -->

<svg
   xmlns:dc="http://purl.org/dc/elements/1.1/"
   xmlns:cc="http://creativecommons.org/ns#"
   xmlns:rdf="http://www.w3.org/1999/02/22-rdf-syntax-ns#"
   xmlns:svg="http://www.w3.org/2000/svg"
   xmlns="http://www.w3.org/2000/svg"
   xmlns:xlink="http://www.w3.org/1999/xlink"
   xmlns:sodipodi="http://sodipodi.sourceforge.net/DTD/sodipodi-0.dtd"
   xmlns:inkscape="http://www.inkscape.org/namespaces/inkscape"
   width="219.51706mm"
   height="219.51706mm"
   viewBox="0 0 219.51706 219.51706"
   version="1.1"
   id="svg8"
   inkscape:version="0.92.3 (2405546, 2018-03-11)"
   sodipodi:docname="Medal logo.svg">
  <title
     id="title1678">Medal Logo</title>
  <defs
     id="defs2">
    <pattern
       patternTransform="matrix(0.5179513,-0.29903932,0.29903932,0.5179513,297.58041,222.06353)"
       id="pattern1795"
       xlink:href="#pattern1072"
       inkscape:collect="always" />
    <pattern
       id="pattern1072"
       patternTransform="matrix(0.34136681,0,0,0.34136681,297.58041,222.06353)"
       height="45.425974"
       width="43.210235"
       patternUnits="userSpaceOnUse">
      <path
         style="fill:#0d1f32;fill-opacity:1;fill-rule:nonzero;stroke:none;stroke-width:1.33333349"
         d="M 0.10879792,0 C 0.0727663,0.03720338 0.0361488,0.07382088 1.1717601e-4,0.11131721 V 3.9146161 C 0.56048214,3.8405022 1.0211303,3.7482261 1.2183961,3.6456971 0.80250918,4.1563209 0.39757819,4.681826 1.1717601e-4,5.2160607 V 6.2470045 C 0.06602868,6.2704397 0.13106136,6.2947537 0.19550817,6.327563 0.25087383,5.9366931 0.67165288,5.60488 1.0752949,5.6261181 0.9001168,6.35466 0.74977998,7.086307 0,7.7793737 V 40.718223 c 0.16140995,-0.03486 0.31874804,2.05e-4 0.46343111,0.210038 C 0.45757231,41.221963 0.24782726,41.318721 0,41.294817 v 0.13944 c 0.37944521,0.54396 0.7687332,1.083614 1.1811927,1.601122 0.1827946,-0.127429 0.3662044,-0.250757 0.5276729,-0.378332 1.0281902,0.790264 1.3295669,0.377922 2.1623075,1.482569 -0.5353479,0.514081 -1.0164726,0.08964 -1.5305531,0.285031 0.3034859,0.341421 0.6147933,0.67385 0.9313735,1.001064 h 0.5258567 c 0.08671,-0.124793 0.1874816,-0.248999 0.3149984,-0.372005 0.095791,0.153501 0.1942192,0.271849 0.2932329,0.372005 h 5.3437826 c -0.011718,-0.01172 -0.020506,-0.02343 -0.033395,-0.03252 C 10.047843,45.274258 9.550958,44.276065 9.2494348,44.467237 9.5808379,44.870879 8.756534,44.964298 8.637571,44.73059 c 0.378127,-0.403642 1.0247628,-0.314471 1.2499458,-0.820056 0.2293722,0.327156 0.4883312,0.187189 0.7177612,0.488771 0.582072,-0.14442 -0.05537,-1.062787 0.496914,-0.71867 0.344146,0.199785 0.114247,1.067239 0.700566,0.791084 -0.140318,-0.157308 0.101944,-0.446294 0.318602,-0.280636 0.165804,0.722243 -0.263939,0.56098 -0.811913,1.002851 0.02051,0.07441 0.05917,0.1535 0.102237,0.231715 h 1.230025 c 0.0014,-9.37e-4 0.0014,-0.0018 0.0028,-0.0028 0.37388,-0.378127 0.713954,-0.195684 1.0581,-0.08495 0.01172,0.0205 0.0088,0.05273 -0.0019,0.08788 h 0.0832 c -0.01465,-0.128015 -0.04043,-0.256323 -0.06503,-0.384689 -0.463079,0.186896 -0.887374,-0.204472 -1.33774,-0.229958 0.420603,-0.331403 0.768821,-0.140318 0.496914,-0.722273 -0.352641,0.174299 -0.08056,-0.233766 -0.123034,-0.458891 -0.322908,0.365385 -0.62862,0.489269 -0.91327,0.247242 0.509833,-0.539596 -0.395704,-0.416766 -0.106923,-0.756664 0.40786,-0.203886 0.556498,-0.05097 0.581984,0.335797 0.327155,-0.488595 0.595049,0.05507 0.892441,0.05507 -0.148813,0.186895 -0.08876,0.390723 -0.0334,0.594668 0.293175,0.135924 0.633131,-0.518738 0.917781,-0.242554 0.259252,0.879493 0.39503,1.321745 0.99834,0.811912 -0.364447,0.229372 -0.232887,0.489151 -0.08964,0.750337 h 6.102292 c 0.0829,-0.01758 0.165804,-0.03632 0.249878,-0.06708 9.38e-4,0.02637 0.0088,0.04336 0.01172,0.06708 h 0.577443 c -0.08671,-0.115419 -0.17635,-0.230837 -0.274192,-0.346666 0.781769,0.242262 0.284738,-0.187481 0.794688,-0.701474 0.594815,0.08495 1.142993,0.909784 1.793027,0.106923 0.01172,0.373001 0.352319,0.659789 0.714129,0.941334 h 2.886426 c -0.03193,-0.160824 0.04921,-0.264818 0.409999,-0.240797 -0.790264,-0.293174 -0.09316,-0.879347 -1.104237,-1.567668 L 27.7962,43.052662 c 0.424851,0.429128 -0.259545,0.785753 0.522253,1.231872 0.412108,0.06357 1.074651,-0.09345 1.023679,0.514109 0.242261,0.07206 0.506405,-0.157015 0.735836,0.195391 -0.477727,0.01172 -0.260717,0.150279 -0.500517,0.431735 H 43.210235 V 0 H 22.74565 c 0.06269,0.26188838 0.185138,0.66418291 0.172835,0.96122409 C 22.73569,0.96415349 22.722801,1.122927 22.582688,1.0209838 22.625164,0.69265668 22.374993,0.16155642 22.644205,2.9294002e-5 Z M 42.487962,0.72950853 c 0.05449,-2.6365e-4 0.103701,0.008788 0.142955,0.029294 -0.02636,0.24636257 -0.561156,0.57351797 -0.616376,0.11043839 0.101944,-0.0606386 0.309843,-0.13768181 0.473362,-0.13856063 z m -8.638391,0.0533151 c 0.02959,0.31016487 0.07968,0.63773037 0.0416,0.90963737 -0.259252,0.072356 -0.428717,0.017576 -0.534938,-0.132116 -0.110438,-0.2762424 0.03838,-0.3610193 0.140319,-0.4842298 0.157309,-0.072356 0.102236,-0.28913182 0.352992,-0.29326227 z m 3.342592,0.0887608 c 0.488565,0.30591727 -0.267454,0.83839437 -0.31409,0.17547107 0.110438,-0.0594668 0.135631,-0.17136991 0.31409,-0.17547107 z m 5.332914,0.59557637 c 0.212382,-0.00293 0.271556,0.2117956 0.356596,0.3946195 -0.127429,0.1488135 -0.437301,0.1151254 -0.564788,0.047163 -0.04248,-0.2252708 -0.04687,-0.4247044 0.20828,-0.4416949 z M 22.007998,2.6139331 c 0.20828,0.1403183 0.382169,0.3361487 0.552104,0.5358166 0.03837,0.5438431 -0.207402,0.8923539 -0.334889,1.3214817 -0.501338,0.063861 -0.183381,-0.7223315 -0.540357,-0.7648371 -0.04658,-0.1784005 0.195977,-0.1570158 0.174592,-0.3186016 0.0088,-0.1742993 -0.09403,-0.1912898 -0.11952,-0.3231128 -0.04658,-0.2463626 0.255151,-0.2466555 0.26804,-0.4507468 z M 3.7898822,6.302253 c 0.076457,0.1868957 0.011718,0.3863 -0.1022361,0.5222535 C 3.4793658,6.7861313 3.3862109,6.6466919 3.4415765,6.3620128 3.5180339,6.2940507 3.6498569,6.2981518 3.7900287,6.302253 Z M 2.9273203,6.9946753 c 0.2507567,0.1019431 0.5567911,0.00879 0.7394685,0.05976 C 3.4075369,8.299313 5.2560763,7.5724995 4.9629019,8.8556061 4.3468491,8.9405587 4.3252301,8.4690424 3.9428555,8.3288413 3.6710071,8.4266833 3.6745224,8.8424238 3.5301323,9.0845973 2.8375928,9.0506163 2.6852933,8.5202191 2.4856254,8.0401197 2.5960637,7.6449729 2.8508337,7.4195848 2.9273203,6.9947046 Z M 5.38289,9.1442985 c 0.065912,3.808e-4 0.1291866,0.020506 0.161117,0.063275 0,0.1825016 -0.088468,0.2721413 -0.2451908,0.2850307 0,-0.055366 -0.064447,-0.045992 -0.1069231,-0.058881 l 0.017576,-0.2299579 c 0.040426,-0.040426 0.1086808,-0.060346 0.1745923,-0.05976 z m 0.3186016,0.8110044 c 0.02988,0.02988 -0.042769,0.07675 -0.05976,0.05976 -0.026365,-0.033981 0.04687,-0.072356 0.05976,-0.05976 z m -0.258959,0.4634021 c 0.1827946,-0.01172 0.1991992,0.271848 -0.020506,0.233473 z m -0.9657646,1.06803 c 0.1924616,-0.0088 0.3261887,0.352963 0.2689189,0.665267 -0.3186309,0.144419 -0.4964162,-0.173421 -0.475178,-0.517713 0.072063,-0.100772 0.1420759,-0.144713 0.2062298,-0.147642 z m 3.9309035,0.963948 c 0.1233277,-0.02988 0.102529,0.07558 0.1069231,0.16932 -0.042476,-0.01172 -0.05185,-0.05507 -0.1113172,-0.05507 z m -0.301406,0.632663 c 0.1868957,0.01758 0.1019431,0.352465 -0.1230348,0.288839 -0.046577,-0.186896 0.097549,-0.178401 0.1230348,-0.288839 z m 33.1778005,1.979483 c 0.263353,-0.02636 0.416532,0.09755 0.696934,0.05068 0.06796,0.318631 -0.135338,0.455229 -0.15643,0.71864 -0.174299,0.03838 -0.221463,0.169613 -0.425408,0.18631 -0.191289,-0.165804 -0.547856,-0.09257 -0.552104,-0.530397 0.352642,0.0029 0.360697,-0.234059 0.437155,-0.425407 z m -32.8157266,0.05712 c 0.014647,0.0029 0.023435,0.0205 0.023435,0.0372 -0.011718,0.06796 -0.05976,0.03398 -0.05976,0 0.00586,-0.03193 0.023435,-0.04101 0.035446,-0.0372 z m 23.7664286,3.71278 c 0.01465,0.0028 0.02636,0.01465 0.02929,0.03252 0,0.05947 -0.05009,0.03779 -0.05419,0.0029 0,-0.02988 0.01172,-0.03838 0.02636,-0.03603 z m 0.781095,1.67717 c 0.08085,0.169905 -0.05507,0.182794 -0.06328,0.293262 -0.186895,0.01758 -0.166097,-0.318748 0.06328,-0.293262 z m 3.637642,0.52404 c 0.190118,0.01172 0.342329,0.225857 0.390108,0.474299 -0.182795,0.433346 -0.564642,4.1e-4 -0.590128,-0.411844 0.06913,-0.04775 0.136803,-0.06621 0.200078,-0.0624 z m 5.537504,0.07324 c 0.04658,0.0028 0.08759,0.01465 0.125671,0.03164 0.02051,0.09755 -0.04687,0.127136 -0.01758,0.22908 -0.195391,0.07646 -0.237574,-0.07236 -0.271555,-0.238161 0.06357,-0.0205 0.116297,-0.02636 0.162875,-0.02343 z m -9.544426,0.210038 c 0.04687,0.0029 0.06415,0.04658 0.11952,0.03808 l 0.02051,0.110439 c -0.114833,0.04658 -0.118934,-0.05917 -0.140319,-0.148521 z m 3.505496,1.325993 0.04248,0.219998 c -0.178401,0.04658 -0.263353,-0.215604 -0.04248,-0.219998 z m -0.05068,0.640836 c 0.02988,0.02636 -0.03017,0.07616 -0.04716,0.06328 -0.03398,-0.02051 0.02636,-0.07616 0.04716,-0.06328 z m 0.475178,0.433551 c 0.01172,0.05097 0.07646,0.03017 0.123035,0.03427 l 0.04248,0.220876 c -0.05947,0.08935 -0.254565,0.122742 -0.3394,0.06328 -0.04687,-0.182795 0.0205,-0.284738 0.173713,-0.318602 z m 2.087197,0.0624 c 0.517127,0.03339 0.77011,0.44026 1.052651,0.80828 0,0.386652 -0.19129,0.645933 -0.152915,1.05807 -0.267747,-0.04687 -0.543784,0.08876 -0.734957,0.07616 -0.07236,-1.219393 -1.70828,-0.198907 -1.755004,-1.460863 0.590568,-0.195391 0.739176,0.242554 1.151284,0.310458 0.242261,-0.140318 0.119227,-0.535612 0.200078,-0.782033 0.08554,-0.01172 0.165218,-0.01465 0.239039,-0.0088 z m 0.207109,2.164124 c 0.212381,-0.0029 0.339898,0.11864 0.361136,0.39916 -0.05947,0.07236 -0.186602,0.09755 -0.326745,0.110438 -0.123328,-0.16141 -0.115125,-0.360873 -0.03427,-0.509598 z M 15.936257,31.4291 c 0.514081,0.02636 0.05625,0.755756 0.40458,0.866195 0.01758,0.186895 -0.225564,0.11864 -0.229958,0.288838 -0.04248,0.1743 0.05859,0.208867 0.05419,0.344849 0.0088,0.259252 -0.296309,0.203887 -0.343033,0.403672 -0.186896,-0.178401 -0.327448,-0.40748 -0.463431,-0.632663 0.06357,-0.556586 0.36928,-0.862913 0.577473,-1.270803 z M 0.39910148,31.871698 c 0.11688307,0.0088 0.21970502,0.111318 0.1909969,0.364769 -0.12332775,0.03398 -0.16492524,0.144127 -0.34757334,0.118641 -0.27096952,-0.249585 -0.0380822,-0.497412 0.15642997,-0.483351 z m 3.30547662,0.245191 c 0.2762424,-0.02051 0.4370079,0.06796 0.5177129,0.23816 0.063568,0.288839 -0.1013573,0.352378 -0.2290791,0.45435 -0.1658041,0.04658 -0.1488136,0.27595 -0.4036714,0.233474 0.026365,-0.318661 0.034274,-0.658266 0.1148325,-0.925925 z m 11.1717949,2.665549 c 0.02344,0.0029 0.04892,0.01758 0.0788,0.0498 -0.106044,0.352641 0.09784,1.023884 -0.343941,1.040875 -0.01172,-0.271849 -0.07236,-0.73071 0,-1.040875 0.133874,0.02344 0.193633,-0.06064 0.265111,-0.0498 z M 3.1560772,36.2641 c 0.032223,-0.0028 0.062689,0.0014 0.08964,0.01172 -0.00293,0.356889 -0.2129674,0.692159 -0.5231616,0.577444 -0.1078019,-0.23406 0.2079875,-0.569769 0.4335513,-0.590128 z m 11.3265848,0.372912 c 0.133287,0.0059 0.270383,0.06621 0.357504,0.157602 -0.04658,0.263353 -0.212382,0.399599 -0.288839,0.629059 0.07236,0.229372 0.187188,0.55272 0.05976,0.811884 -0.169906,0.08056 -0.42119,0.08056 -0.523162,-0.05976 0.05097,-0.4801 0.148813,-0.918103 0.05976,-1.381212 0.07236,-0.118934 0.201542,-0.16434 0.334918,-0.157602 z m -1.142261,3.500956 c 0.199785,0.08935 0.607469,-0.02929 0.637203,0.229958 -0.237868,0.118933 -0.755756,0.08056 -0.810975,-0.170199 0.04658,-0.02988 0.09726,-0.05976 0.173713,-0.05976 z M 1.7377788,43.712275 c 0.038082,0.04248 0.071184,0.08437 0.1095596,0.126843 0.020506,0.0088 0.047749,0.0088 0.068841,0.01758 -0.026365,-0.04658 -0.068548,-0.09286 -0.1195196,-0.143834 -0.026365,-0.0029 -0.037789,0.0029 -0.058881,0 z m 12.0307532,0.492374 c -0.07382,-0.01465 -0.150278,0.0023 -0.156722,0.08056 -0.0029,0.08056 0.293555,0.1743 0.297773,0.01758 0.0029,-0.04043 -0.06738,-0.08378 -0.141197,-0.09784 z m -2.615778,0.201836 c -0.193341,-0.01465 -0.407509,0.541529 0.173713,0.486046 -0.0028,-0.354516 -0.08583,-0.479192 -0.173713,-0.486046 z m 2.439253,0.23816 c -0.07382,-0.01465 -0.149693,0.0018 -0.153794,0.0788 -0.0029,0.08495 0.289132,0.173713 0.297774,0.02051 0.0028,-0.04248 -0.07001,-0.08583 -0.143834,-0.0996 z m 9.311801,0.09784 c -0.147056,-0.02051 -0.317195,0.04336 -0.479718,0.236109 0.276242,0.399395 0.569651,0.560278 0.879787,0.352085 0.02636,-0.286788 -0.154966,-0.553979 -0.400069,-0.588311 z m -12.510443,0.19832 c -0.02959,-0.0028 -0.06943,0.0088 -0.120398,0.0416 -0.08905,0.07646 -0.06884,0.288253 0.13944,0.15643 0.06708,-0.05742 0.07001,-0.190411 -0.01758,-0.198321 z m 18.608195,0.436246 c -0.02344,0.01758 -0.0372,0.03252 -0.05888,0.04892 h 0.07411 c -0.0059,-0.01758 -0.0088,-0.03281 -0.01465,-0.04892 z"
         id="path76"
         inkscape:connector-curvature="0" />
    </pattern>
    <pattern
       id="pattern1072-3"
       patternTransform="matrix(0.34136681,0,0,0.34136681,297.58041,222.06353)"
       height="45.425974"
       width="43.210235"
       patternUnits="userSpaceOnUse">
      <path
         style="fill:#0d1f32;fill-opacity:1;fill-rule:nonzero;stroke:none;stroke-width:1.33333349"
         d="M 0.10879792,0 C 0.0727663,0.03720338 0.0361488,0.07382088 1.1717601e-4,0.11131721 V 3.9146161 C 0.56048214,3.8405022 1.0211303,3.7482261 1.2183961,3.6456971 0.80250918,4.1563209 0.39757819,4.681826 1.1717601e-4,5.2160607 V 6.2470045 C 0.06602868,6.2704397 0.13106136,6.2947537 0.19550817,6.327563 0.25087383,5.9366931 0.67165288,5.60488 1.0752949,5.6261181 0.9001168,6.35466 0.74977998,7.086307 0,7.7793737 V 40.718223 c 0.16140995,-0.03486 0.31874804,2.05e-4 0.46343111,0.210038 C 0.45757231,41.221963 0.24782726,41.318721 0,41.294817 v 0.13944 c 0.37944521,0.54396 0.7687332,1.083614 1.1811927,1.601122 0.1827946,-0.127429 0.3662044,-0.250757 0.5276729,-0.378332 1.0281902,0.790264 1.3295669,0.377922 2.1623075,1.482569 -0.5353479,0.514081 -1.0164726,0.08964 -1.5305531,0.285031 0.3034859,0.341421 0.6147933,0.67385 0.9313735,1.001064 h 0.5258567 c 0.08671,-0.124793 0.1874816,-0.248999 0.3149984,-0.372005 0.095791,0.153501 0.1942192,0.271849 0.2932329,0.372005 h 5.3437826 c -0.011718,-0.01172 -0.020506,-0.02343 -0.033395,-0.03252 C 10.047843,45.274258 9.550958,44.276065 9.2494348,44.467237 9.5808379,44.870879 8.756534,44.964298 8.637571,44.73059 c 0.378127,-0.403642 1.0247628,-0.314471 1.2499458,-0.820056 0.2293722,0.327156 0.4883312,0.187189 0.7177612,0.488771 0.582072,-0.14442 -0.05537,-1.062787 0.496914,-0.71867 0.344146,0.199785 0.114247,1.067239 0.700566,0.791084 -0.140318,-0.157308 0.101944,-0.446294 0.318602,-0.280636 0.165804,0.722243 -0.263939,0.56098 -0.811913,1.002851 0.02051,0.07441 0.05917,0.1535 0.102237,0.231715 h 1.230025 c 0.0014,-9.37e-4 0.0014,-0.0018 0.0028,-0.0028 0.37388,-0.378127 0.713954,-0.195684 1.0581,-0.08495 0.01172,0.0205 0.0088,0.05273 -0.0019,0.08788 h 0.0832 c -0.01465,-0.128015 -0.04043,-0.256323 -0.06503,-0.384689 -0.463079,0.186896 -0.887374,-0.204472 -1.33774,-0.229958 0.420603,-0.331403 0.768821,-0.140318 0.496914,-0.722273 -0.352641,0.174299 -0.08056,-0.233766 -0.123034,-0.458891 -0.322908,0.365385 -0.62862,0.489269 -0.91327,0.247242 0.509833,-0.539596 -0.395704,-0.416766 -0.106923,-0.756664 0.40786,-0.203886 0.556498,-0.05097 0.581984,0.335797 0.327155,-0.488595 0.595049,0.05507 0.892441,0.05507 -0.148813,0.186895 -0.08876,0.390723 -0.0334,0.594668 0.293175,0.135924 0.633131,-0.518738 0.917781,-0.242554 0.259252,0.879493 0.39503,1.321745 0.99834,0.811912 -0.364447,0.229372 -0.232887,0.489151 -0.08964,0.750337 h 6.102292 c 0.0829,-0.01758 0.165804,-0.03632 0.249878,-0.06708 9.38e-4,0.02637 0.0088,0.04336 0.01172,0.06708 h 0.577443 c -0.08671,-0.115419 -0.17635,-0.230837 -0.274192,-0.346666 0.781769,0.242262 0.284738,-0.187481 0.794688,-0.701474 0.594815,0.08495 1.142993,0.909784 1.793027,0.106923 0.01172,0.373001 0.352319,0.659789 0.714129,0.941334 h 2.886426 c -0.03193,-0.160824 0.04921,-0.264818 0.409999,-0.240797 -0.790264,-0.293174 -0.09316,-0.879347 -1.104237,-1.567668 L 27.7962,43.052662 c 0.424851,0.429128 -0.259545,0.785753 0.522253,1.231872 0.412108,0.06357 1.074651,-0.09345 1.023679,0.514109 0.242261,0.07206 0.506405,-0.157015 0.735836,0.195391 -0.477727,0.01172 -0.260717,0.150279 -0.500517,0.431735 H 43.210235 V 0 H 22.74565 c 0.06269,0.26188838 0.185138,0.66418291 0.172835,0.96122409 C 22.73569,0.96415349 22.722801,1.122927 22.582688,1.0209838 22.625164,0.69265668 22.374993,0.16155642 22.644205,2.9294002e-5 Z M 42.487962,0.72950853 c 0.05449,-2.6365e-4 0.103701,0.008788 0.142955,0.029294 -0.02636,0.24636257 -0.561156,0.57351797 -0.616376,0.11043839 0.101944,-0.0606386 0.309843,-0.13768181 0.473362,-0.13856063 z m -8.638391,0.0533151 c 0.02959,0.31016487 0.07968,0.63773037 0.0416,0.90963737 -0.259252,0.072356 -0.428717,0.017576 -0.534938,-0.132116 -0.110438,-0.2762424 0.03838,-0.3610193 0.140319,-0.4842298 0.157309,-0.072356 0.102236,-0.28913182 0.352992,-0.29326227 z m 3.342592,0.0887608 c 0.488565,0.30591727 -0.267454,0.83839437 -0.31409,0.17547107 0.110438,-0.0594668 0.135631,-0.17136991 0.31409,-0.17547107 z m 5.332914,0.59557637 c 0.212382,-0.00293 0.271556,0.2117956 0.356596,0.3946195 -0.127429,0.1488135 -0.437301,0.1151254 -0.564788,0.047163 -0.04248,-0.2252708 -0.04687,-0.4247044 0.20828,-0.4416949 z M 22.007998,2.6139331 c 0.20828,0.1403183 0.382169,0.3361487 0.552104,0.5358166 0.03837,0.5438431 -0.207402,0.8923539 -0.334889,1.3214817 -0.501338,0.063861 -0.183381,-0.7223315 -0.540357,-0.7648371 -0.04658,-0.1784005 0.195977,-0.1570158 0.174592,-0.3186016 0.0088,-0.1742993 -0.09403,-0.1912898 -0.11952,-0.3231128 -0.04658,-0.2463626 0.255151,-0.2466555 0.26804,-0.4507468 z M 3.7898822,6.302253 c 0.076457,0.1868957 0.011718,0.3863 -0.1022361,0.5222535 C 3.4793658,6.7861313 3.3862109,6.6466919 3.4415765,6.3620128 3.5180339,6.2940507 3.6498569,6.2981518 3.7900287,6.302253 Z M 2.9273203,6.9946753 c 0.2507567,0.1019431 0.5567911,0.00879 0.7394685,0.05976 C 3.4075369,8.299313 5.2560763,7.5724995 4.9629019,8.8556061 4.3468491,8.9405587 4.3252301,8.4690424 3.9428555,8.3288413 3.6710071,8.4266833 3.6745224,8.8424238 3.5301323,9.0845973 2.8375928,9.0506163 2.6852933,8.5202191 2.4856254,8.0401197 2.5960637,7.6449729 2.8508337,7.4195848 2.9273203,6.9947046 Z M 5.38289,9.1442985 c 0.065912,3.808e-4 0.1291866,0.020506 0.161117,0.063275 0,0.1825016 -0.088468,0.2721413 -0.2451908,0.2850307 0,-0.055366 -0.064447,-0.045992 -0.1069231,-0.058881 l 0.017576,-0.2299579 c 0.040426,-0.040426 0.1086808,-0.060346 0.1745923,-0.05976 z m 0.3186016,0.8110044 c 0.02988,0.02988 -0.042769,0.07675 -0.05976,0.05976 -0.026365,-0.033981 0.04687,-0.072356 0.05976,-0.05976 z m -0.258959,0.4634021 c 0.1827946,-0.01172 0.1991992,0.271848 -0.020506,0.233473 z m -0.9657646,1.06803 c 0.1924616,-0.0088 0.3261887,0.352963 0.2689189,0.665267 -0.3186309,0.144419 -0.4964162,-0.173421 -0.475178,-0.517713 0.072063,-0.100772 0.1420759,-0.144713 0.2062298,-0.147642 z m 3.9309035,0.963948 c 0.1233277,-0.02988 0.102529,0.07558 0.1069231,0.16932 -0.042476,-0.01172 -0.05185,-0.05507 -0.1113172,-0.05507 z m -0.301406,0.632663 c 0.1868957,0.01758 0.1019431,0.352465 -0.1230348,0.288839 -0.046577,-0.186896 0.097549,-0.178401 0.1230348,-0.288839 z m 33.1778005,1.979483 c 0.263353,-0.02636 0.416532,0.09755 0.696934,0.05068 0.06796,0.318631 -0.135338,0.455229 -0.15643,0.71864 -0.174299,0.03838 -0.221463,0.169613 -0.425408,0.18631 -0.191289,-0.165804 -0.547856,-0.09257 -0.552104,-0.530397 0.352642,0.0029 0.360697,-0.234059 0.437155,-0.425407 z m -32.8157266,0.05712 c 0.014647,0.0029 0.023435,0.0205 0.023435,0.0372 -0.011718,0.06796 -0.05976,0.03398 -0.05976,0 0.00586,-0.03193 0.023435,-0.04101 0.035446,-0.0372 z m 23.7664286,3.71278 c 0.01465,0.0028 0.02636,0.01465 0.02929,0.03252 0,0.05947 -0.05009,0.03779 -0.05419,0.0029 0,-0.02988 0.01172,-0.03838 0.02636,-0.03603 z m 0.781095,1.67717 c 0.08085,0.169905 -0.05507,0.182794 -0.06328,0.293262 -0.186895,0.01758 -0.166097,-0.318748 0.06328,-0.293262 z m 3.637642,0.52404 c 0.190118,0.01172 0.342329,0.225857 0.390108,0.474299 -0.182795,0.433346 -0.564642,4.1e-4 -0.590128,-0.411844 0.06913,-0.04775 0.136803,-0.06621 0.200078,-0.0624 z m 5.537504,0.07324 c 0.04658,0.0028 0.08759,0.01465 0.125671,0.03164 0.02051,0.09755 -0.04687,0.127136 -0.01758,0.22908 -0.195391,0.07646 -0.237574,-0.07236 -0.271555,-0.238161 0.06357,-0.0205 0.116297,-0.02636 0.162875,-0.02343 z m -9.544426,0.210038 c 0.04687,0.0029 0.06415,0.04658 0.11952,0.03808 l 0.02051,0.110439 c -0.114833,0.04658 -0.118934,-0.05917 -0.140319,-0.148521 z m 3.505496,1.325993 0.04248,0.219998 c -0.178401,0.04658 -0.263353,-0.215604 -0.04248,-0.219998 z m -0.05068,0.640836 c 0.02988,0.02636 -0.03017,0.07616 -0.04716,0.06328 -0.03398,-0.02051 0.02636,-0.07616 0.04716,-0.06328 z m 0.475178,0.433551 c 0.01172,0.05097 0.07646,0.03017 0.123035,0.03427 l 0.04248,0.220876 c -0.05947,0.08935 -0.254565,0.122742 -0.3394,0.06328 -0.04687,-0.182795 0.0205,-0.284738 0.173713,-0.318602 z m 2.087197,0.0624 c 0.517127,0.03339 0.77011,0.44026 1.052651,0.80828 0,0.386652 -0.19129,0.645933 -0.152915,1.05807 -0.267747,-0.04687 -0.543784,0.08876 -0.734957,0.07616 -0.07236,-1.219393 -1.70828,-0.198907 -1.755004,-1.460863 0.590568,-0.195391 0.739176,0.242554 1.151284,0.310458 0.242261,-0.140318 0.119227,-0.535612 0.200078,-0.782033 0.08554,-0.01172 0.165218,-0.01465 0.239039,-0.0088 z m 0.207109,2.164124 c 0.212381,-0.0029 0.339898,0.11864 0.361136,0.39916 -0.05947,0.07236 -0.186602,0.09755 -0.326745,0.110438 -0.123328,-0.16141 -0.115125,-0.360873 -0.03427,-0.509598 z M 15.936257,31.4291 c 0.514081,0.02636 0.05625,0.755756 0.40458,0.866195 0.01758,0.186895 -0.225564,0.11864 -0.229958,0.288838 -0.04248,0.1743 0.05859,0.208867 0.05419,0.344849 0.0088,0.259252 -0.296309,0.203887 -0.343033,0.403672 -0.186896,-0.178401 -0.327448,-0.40748 -0.463431,-0.632663 0.06357,-0.556586 0.36928,-0.862913 0.577473,-1.270803 z M 0.39910148,31.871698 c 0.11688307,0.0088 0.21970502,0.111318 0.1909969,0.364769 -0.12332775,0.03398 -0.16492524,0.144127 -0.34757334,0.118641 -0.27096952,-0.249585 -0.0380822,-0.497412 0.15642997,-0.483351 z m 3.30547662,0.245191 c 0.2762424,-0.02051 0.4370079,0.06796 0.5177129,0.23816 0.063568,0.288839 -0.1013573,0.352378 -0.2290791,0.45435 -0.1658041,0.04658 -0.1488136,0.27595 -0.4036714,0.233474 0.026365,-0.318661 0.034274,-0.658266 0.1148325,-0.925925 z m 11.1717949,2.665549 c 0.02344,0.0029 0.04892,0.01758 0.0788,0.0498 -0.106044,0.352641 0.09784,1.023884 -0.343941,1.040875 -0.01172,-0.271849 -0.07236,-0.73071 0,-1.040875 0.133874,0.02344 0.193633,-0.06064 0.265111,-0.0498 z M 3.1560772,36.2641 c 0.032223,-0.0028 0.062689,0.0014 0.08964,0.01172 -0.00293,0.356889 -0.2129674,0.692159 -0.5231616,0.577444 -0.1078019,-0.23406 0.2079875,-0.569769 0.4335513,-0.590128 z m 11.3265848,0.372912 c 0.133287,0.0059 0.270383,0.06621 0.357504,0.157602 -0.04658,0.263353 -0.212382,0.399599 -0.288839,0.629059 0.07236,0.229372 0.187188,0.55272 0.05976,0.811884 -0.169906,0.08056 -0.42119,0.08056 -0.523162,-0.05976 0.05097,-0.4801 0.148813,-0.918103 0.05976,-1.381212 0.07236,-0.118934 0.201542,-0.16434 0.334918,-0.157602 z m -1.142261,3.500956 c 0.199785,0.08935 0.607469,-0.02929 0.637203,0.229958 -0.237868,0.118933 -0.755756,0.08056 -0.810975,-0.170199 0.04658,-0.02988 0.09726,-0.05976 0.173713,-0.05976 z M 1.7377788,43.712275 c 0.038082,0.04248 0.071184,0.08437 0.1095596,0.126843 0.020506,0.0088 0.047749,0.0088 0.068841,0.01758 -0.026365,-0.04658 -0.068548,-0.09286 -0.1195196,-0.143834 -0.026365,-0.0029 -0.037789,0.0029 -0.058881,0 z m 12.0307532,0.492374 c -0.07382,-0.01465 -0.150278,0.0023 -0.156722,0.08056 -0.0029,0.08056 0.293555,0.1743 0.297773,0.01758 0.0029,-0.04043 -0.06738,-0.08378 -0.141197,-0.09784 z m -2.615778,0.201836 c -0.193341,-0.01465 -0.407509,0.541529 0.173713,0.486046 -0.0028,-0.354516 -0.08583,-0.479192 -0.173713,-0.486046 z m 2.439253,0.23816 c -0.07382,-0.01465 -0.149693,0.0018 -0.153794,0.0788 -0.0029,0.08495 0.289132,0.173713 0.297774,0.02051 0.0028,-0.04248 -0.07001,-0.08583 -0.143834,-0.0996 z m 9.311801,0.09784 c -0.147056,-0.02051 -0.317195,0.04336 -0.479718,0.236109 0.276242,0.399395 0.569651,0.560278 0.879787,0.352085 0.02636,-0.286788 -0.154966,-0.553979 -0.400069,-0.588311 z m -12.510443,0.19832 c -0.02959,-0.0028 -0.06943,0.0088 -0.120398,0.0416 -0.08905,0.07646 -0.06884,0.288253 0.13944,0.15643 0.06708,-0.05742 0.07001,-0.190411 -0.01758,-0.198321 z m 18.608195,0.436246 c -0.02344,0.01758 -0.0372,0.03252 -0.05888,0.04892 h 0.07411 c -0.0059,-0.01758 -0.0088,-0.03281 -0.01465,-0.04892 z"
         id="path76-6"
         inkscape:connector-curvature="0" />
    </pattern>
    <clipPath
       clipPathUnits="userSpaceOnUse"
       id="clipPath1573">
      <path
         style="opacity:0.2;vector-effect:none;fill:#ff0000;fill-opacity:1;stroke:none;stroke-width:4.69979286;stroke-linecap:butt;stroke-linejoin:miter;stroke-miterlimit:4;stroke-dasharray:none;stroke-dashoffset:0;stroke-opacity:1;marker:none"
         d="M 101.81652,28.349173 A 87.757706,87.757706 0 0 0 14.058573,116.10712 87.757706,87.757706 0 0 0 19.9316,147.63336 c 12.871682,-4.8 26.130842,-8.45725 39.62342,-10.93163 l 0.4377,2.46238 c 0.0045,-7.9e-4 0.0089,-0.002 0.01344,-0.003 l -0.01241,0.008 1.470711,8.27598 c 13.337886,-2.44981 26.844839,-3.67729 40.352059,-3.67729 13.50722,0 27.01417,1.22748 40.35206,3.67729 l 1.47122,-8.27598 -0.0129,-0.008 c 0.005,7.9e-4 0.009,0.002 0.0134,0.003 l 0.4377,-2.46134 c 13.46549,2.46942 26.69852,6.11597 39.54591,10.90114 a 87.757706,87.757706 0 0 0 5.95002,-31.49679 87.757706,87.757706 0 0 0 -87.75744,-87.757947 z m 0,155.417897 c -15.881335,0 -31.762299,2.06337 -47.236905,6.18877 a 87.757706,87.757706 0 0 0 47.236905,13.90872 87.757706,87.757706 0 0 0 47.35577,-13.87771 c -15.51209,-4.14653 -31.43382,-6.21978 -47.35577,-6.21978 z"
         id="path1575"
         inkscape:connector-curvature="0" />
    </clipPath>
    <clipPath
       clipPathUnits="userSpaceOnUse"
       id="clipPath1597">
      <path
         style="color:#000000;font-style:normal;font-variant:normal;font-weight:normal;font-stretch:normal;font-size:medium;line-height:normal;font-family:sans-serif;font-variant-ligatures:normal;font-variant-position:normal;font-variant-caps:normal;font-variant-numeric:normal;font-variant-alternates:normal;font-feature-settings:normal;text-indent:0;text-align:start;text-decoration:none;text-decoration-line:none;text-decoration-style:solid;text-decoration-color:#000000;letter-spacing:normal;word-spacing:normal;text-transform:none;writing-mode:lr-tb;direction:ltr;text-orientation:mixed;dominant-baseline:auto;baseline-shift:baseline;text-anchor:start;white-space:normal;shape-padding:0;clip-rule:nonzero;display:inline;overflow:visible;visibility:visible;opacity:0.2;isolation:auto;mix-blend-mode:normal;color-interpolation:sRGB;color-interpolation-filters:linearRGB;solid-color:#000000;solid-opacity:1;vector-effect:none;fill:#ff0000;fill-opacity:1;fill-rule:nonzero;stroke:none;stroke-width:5;stroke-linecap:butt;stroke-linejoin:miter;stroke-miterlimit:4;stroke-dasharray:none;stroke-dashoffset:0;stroke-opacity:1;marker:none;color-rendering:auto;image-rendering:auto;shape-rendering:auto;text-rendering:auto;enable-background:accumulate"
         d="m 60.006156,139.16153 c -0.0045,7.9e-4 -0.0089,0.002 -0.01344,0.003 l 0.0011,0.005 z m 83.620734,0 0.0129,0.008 5.3e-4,-0.005 c -0.005,-7.9e-4 -0.009,-0.002 -0.0134,-0.003 z m 14.18363,5.66322 22.61309,13.68909 -8.10028,22.256 c 5.68685,2.15053 11.28247,4.56292 16.77107,7.23574 -5.3e-4,-2.44112 -0.59396,-4.86208 -1.48053,-7.27243 -1.2716,-3.45718 -3.08084,-6.6946 -3.85041,-10.00094 l -0.39584,-1.7017 1.46192,-0.95705 c 3.02893,-1.98249 7.2134,-2.75767 11.24376,-4.02198 2.51813,-0.78986 4.78588,-1.75802 6.51123,-2.82773 -14.36011,-7.02566 -29.36305,-12.51915 -44.77401,-16.399 z m -112.068091,0.047 c -15.365434,3.87465 -30.304817,9.39182 -44.6251846,16.39434 1.7184952,1.05241 3.9568774,2.006 6.4414673,2.78536 4.0303733,1.26428 8.2153533,2.03894 11.2442743,4.02146 l 1.46296,0.95705 -0.396358,1.70274 c -0.769578,3.30631 -2.578293,6.54324 -3.849894,10.00042 -0.89424,2.4312 -1.494547,4.87341 -1.484147,7.33599 5.496378,-2.6775 11.091851,-5.10996 16.78709,-7.26364 l -4.768186,-13.10256 -3.345015,-9.19065 z m 56.074091,3.8964 c -24.462942,0 -48.90311,4.20099 -72.312377,12.41784 l 10.259837,28.19156 c 40.195072,-14.02665 83.91053,-14.02665 124.1056,0 l 2.05776,-5.65495 h -5.3e-4 l 5.74538,-15.7856 2.45722,-6.75101 c -23.40925,-8.21685 -47.84994,-12.41784 -72.31289,-12.41784 z"
         id="path1599"
         inkscape:connector-curvature="0" />
    </clipPath>
  </defs>
  <sodipodi:namedview
     id="base"
     pagecolor="#ffffff"
     bordercolor="#666666"
     borderopacity="1.0"
     inkscape:pageopacity="0.0"
     inkscape:pageshadow="2"
     inkscape:zoom="1.0305292"
     inkscape:cx="414.83539"
     inkscape:cy="414.83539"
     inkscape:document-units="mm"
     inkscape:current-layer="layer1"
     showgrid="false"
     inkscape:snap-bbox="true"
     inkscape:bbox-paths="true"
     inkscape:bbox-nodes="true"
     inkscape:snap-bbox-edge-midpoints="true"
     inkscape:snap-bbox-midpoints="true"
     inkscape:object-paths="true"
     inkscape:snap-intersection-paths="true"
     inkscape:snap-smooth-nodes="true"
     inkscape:snap-midpoints="true"
     inkscape:snap-object-midpoints="true"
     inkscape:snap-center="true"
     inkscape:snap-text-baseline="true"
     showguides="true"
     inkscape:guide-bbox="true"
     inkscape:snap-global="true"
     fit-margin-top="0"
     fit-margin-left="0"
     fit-margin-right="0"
     fit-margin-bottom="0"
     inkscape:window-width="1920"
     inkscape:window-height="1057"
     inkscape:window-x="-8"
     inkscape:window-y="-8"
     inkscape:window-maximized="1" />
  <metadata
     id="metadata5">
    <rdf:RDF>
      <cc:Work
         rdf:about="">
        <dc:format>image/svg+xml</dc:format>
        <dc:type
           rdf:resource="http://purl.org/dc/dcmitype/StillImage" />
        <dc:title>Medal Logo</dc:title>
        <dc:date>2018-05-08</dc:date>
        <dc:creator>
          <cc:Agent>
            <dc:title>m1981 (original by ilnanny)</dc:title>
          </cc:Agent>
        </dc:creator>
        <dc:rights>
          <cc:Agent>
            <dc:title>Public domain</dc:title>
          </cc:Agent>
        </dc:rights>
        <dc:publisher>
          <cc:Agent>
            <dc:title>Inkscape</dc:title>
          </cc:Agent>
        </dc:publisher>
        <dc:description>A blank version of ilnanny's logo.</dc:description>
        <dc:subject>
          <rdf:Bag>
            <rdf:li>logo</rdf:li>
            <rdf:li>medal</rdf:li>
            <rdf:li>award</rdf:li>
            <rdf:li>win</rdf:li>
            <rdf:li>prize</rdf:li>
            <rdf:li>quality</rdf:li>
            <rdf:li>approved</rdf:li>
            <rdf:li>ribbon</rdf:li>
            <rdf:li>vector</rdf:li>
          </rdf:Bag>
        </dc:subject>
      </cc:Work>
    </rdf:RDF>
  </metadata>
  <g
     inkscape:label="Calque 1"
     inkscape:groupmode="layer"
     id="layer1"
     transform="translate(20.55615,-13.37242)">
    <g
       id="g1640"
       transform="translate(-12.648505,7.0238303)">
      <g
         clip-path="url(#clipPath1573)"
         id="g1555">
        <path
           style="opacity:1;vector-effect:none;fill:#0d1f32;fill-opacity:1;stroke:none;stroke-width:0.99999994px;stroke-linecap:butt;stroke-linejoin:miter;stroke-miterlimit:4;stroke-dasharray:none;stroke-dashoffset:0;stroke-opacity:1;marker:none"
           d="m 384.81836,150.0332 c -36.06014,0 -46.63837,28.56579 -80.93359,39.70899 -34.29524,11.14319 -59.64509,-5.75031 -88.81836,15.44531 -29.17327,21.19562 -20.9411,50.524 -42.13672,79.69727 -21.19562,29.17327 -51.63219,30.40593 -62.77539,64.70117 -11.143201,34.29523 12.75586,53.184 12.75586,89.24414 0,36.06014 -23.899059,54.9489 -12.75586,89.24414 11.14319,34.29523 41.57977,35.52791 62.77539,64.70117 21.19562,29.17327 12.96345,58.50164 42.13672,79.69727 29.17326,21.19562 54.52313,4.30211 88.81836,15.44531 34.29523,11.1432 44.87344,39.70898 80.93359,39.70898 36.06014,1e-5 46.63836,-28.56579 80.93359,-39.70898 34.29524,-11.1432 59.64314,5.75031 88.81641,-15.44531 29.17326,-21.19562 20.9411,-50.52401 42.13672,-79.69727 21.19562,-29.17327 51.63219,-30.40594 62.77539,-64.70117 11.1432,-34.29523 -12.75586,-53.184 -12.75586,-89.24414 0,-36.06015 23.89905,-54.94891 12.75586,-89.24414 C 648.33728,315.29071 617.90069,314.05803 596.70508,284.88477 575.50946,255.7115 583.74163,226.38312 554.56836,205.1875 525.3951,183.99188 500.04718,200.88538 465.75195,189.74219 431.45672,178.59899 420.8785,150.03321 384.81836,150.0332 Z m 0,51.36133 A 237.43599,237.43599 0 0 1 622.25391,438.83008 237.43599,237.43599 0 0 1 384.81836,676.26562 237.43599,237.43599 0 0 1 147.38281,438.83008 237.43599,237.43599 0 0 1 384.81836,201.39453 Z"
           transform="scale(0.26458333)"
           id="path50"
           inkscape:connector-curvature="0" />
        <path
           style="color:#000000;font-style:normal;font-variant:normal;font-weight:normal;font-stretch:normal;font-size:medium;line-height:normal;font-family:sans-serif;font-variant-ligatures:normal;font-variant-position:normal;font-variant-caps:normal;font-variant-numeric:normal;font-variant-alternates:normal;font-feature-settings:normal;text-indent:0;text-align:start;text-decoration:none;text-decoration-line:none;text-decoration-style:solid;text-decoration-color:#000000;letter-spacing:normal;word-spacing:normal;text-transform:none;writing-mode:lr-tb;direction:ltr;text-orientation:mixed;dominant-baseline:auto;baseline-shift:baseline;text-anchor:start;white-space:normal;shape-padding:0;clip-rule:nonzero;display:inline;overflow:visible;visibility:visible;opacity:1;isolation:auto;mix-blend-mode:normal;color-interpolation:sRGB;color-interpolation-filters:linearRGB;solid-color:#000000;solid-opacity:1;vector-effect:none;fill:#8da1ac;fill-opacity:1;fill-rule:nonzero;stroke:none;stroke-width:3;stroke-linecap:butt;stroke-linejoin:miter;stroke-miterlimit:4;stroke-dasharray:none;stroke-dashoffset:0;stroke-opacity:1;marker:none;color-rendering:auto;image-rendering:auto;shape-rendering:auto;text-rendering:auto;enable-background:accumulate"
           d="m 101.81641,58.589844 c -31.748567,0 -57.517582,25.769015 -57.517582,57.517576 0,31.74856 25.769015,57.51758 57.517582,57.51758 31.74856,0 57.51757,-25.76902 57.51757,-57.51758 0,-31.748561 -25.76901,-57.517576 -57.51757,-57.517576 z m 0,3 c 30.12724,0 54.51757,24.390335 54.51757,54.517576 0,30.12724 -24.39033,54.51758 -54.51757,54.51758 -30.127246,0 -54.517582,-24.39034 -54.517582,-54.51758 0,-30.127241 24.390336,-54.517576 54.517582,-54.517576 z"
           id="circle54"
           inkscape:connector-curvature="0" />
        <circle
           cx="101.81641"
           cy="116.10708"
           r="35.974968"
           style="opacity:1;vector-effect:none;fill:#8da1ac;fill-opacity:1;stroke:none;stroke-width:1.92661023;stroke-linecap:butt;stroke-linejoin:miter;stroke-miterlimit:4;stroke-dasharray:none;stroke-dashoffset:0;stroke-opacity:1;marker:none"
           id="circle864" />
        <g
           id="g1331">
          <path
             inkscape:connector-curvature="0"
             id="circle1070"
             d="m 101.81635,62.598091 c -1.44731,0 -1.82772,1.163323 -1.79214,2.185913 l 0.45165,12.933577 c 0.0274,0.78727 0.23822,1.642277 1.34049,1.642277 1.10228,0 1.31373,-0.873998 1.34048,-1.642277 l 0.45166,-12.933577 c 0.0357,-1.02259 -0.34482,-2.185913 -1.79214,-2.185913 z m 0,90.256509 c -1.10227,0 -1.31309,0.8545 -1.34049,1.64177 l -0.45165,12.93357 c -0.03558,1.02259 0.34483,2.18641 1.79214,2.18641 1.44732,0 1.82794,-1.16382 1.79214,-2.18641 l -0.45166,-12.93357 c -0.0267,-0.7683 -0.23821,-1.64177 -1.34048,-1.64177 z"
             style="opacity:1;vector-effect:none;fill:#8da1ac;fill-opacity:1;stroke:none;stroke-width:1.91309667;stroke-linecap:butt;stroke-linejoin:miter;stroke-miterlimit:4;stroke-dasharray:none;stroke-dashoffset:0;stroke-opacity:1;marker:none" />
          <path
             inkscape:connector-curvature="0"
             style="opacity:1;vector-effect:none;fill:#8da1ac;fill-opacity:1;stroke:none;stroke-width:1.91309667;stroke-linecap:butt;stroke-linejoin:miter;stroke-miterlimit:4;stroke-dasharray:none;stroke-dashoffset:0;stroke-opacity:1;marker:none"
             d="m 101.81635,62.598091 c -1.44731,0 -1.82772,1.163323 -1.79214,2.185913 l 0.45165,12.933577 c 0.0274,0.78727 0.23822,1.642277 1.34049,1.642277 1.10228,0 1.31373,-0.873998 1.34048,-1.642277 l 0.45166,-12.933577 c 0.0357,-1.02259 -0.34482,-2.185913 -1.79214,-2.185913 z m 0,90.256509 c -1.10227,0 -1.31309,0.8545 -1.34049,1.64177 l -0.45165,12.93357 c -0.03558,1.02259 0.34483,2.18641 1.79214,2.18641 1.44732,0 1.82794,-1.16382 1.79214,-2.18641 l -0.45166,-12.93357 c -0.0267,-0.7683 -0.23821,-1.64177 -1.34048,-1.64177 z"
             id="path1104" />
          <path
             inkscape:connector-curvature="0"
             id="path1116"
             d="m 108.8007,63.055865 c -1.43493,-0.18891 -1.96393,0.91481 -2.06213,1.93329 l -1.24038,12.88188 c -0.0756,0.78412 0.0218,1.65932 1.11466,1.8032 1.09285,0.14388 1.41657,-0.69504 1.54337,-1.45326 l 2.13596,-12.76397 c 0.16887,-1.00919 -0.0566,-2.21222 -1.49148,-2.40114 z M 97.019855,152.54022 c -1.09284,-0.14388 -1.41339,0.67579 -1.54332,1.45275 l -2.13595,12.76397 c -0.16875,1.0092 0.0565,2.21271 1.49142,2.40163 1.43494,0.18891 1.96421,-0.91528 2.06219,-1.93379 l 1.24038,-12.88188 c 0.0738,-0.76521 -0.0219,-1.65881 -1.11472,-1.80268 z"
             style="opacity:1;vector-effect:none;fill:#8da1ac;fill-opacity:1;stroke:none;stroke-width:1.91309667;stroke-linecap:butt;stroke-linejoin:miter;stroke-miterlimit:4;stroke-dasharray:none;stroke-dashoffset:0;stroke-opacity:1;marker:none" />
          <path
             inkscape:connector-curvature="0"
             id="path1118"
             d="m 115.66554,64.421355 c -1.398,-0.37459 -2.06653,0.65064 -2.29683,1.64759 l -2.9112,12.60977 c -0.17729,0.76754 -0.19495,1.64798 0.86976,1.93327 1.06472,0.28529 1.49518,-0.5042 1.71986,-1.23938 l 3.78372,-12.37598 c 0.29915,-0.97851 0.23269,-2.20067 -1.16531,-2.57527 z M 92.305425,151.60245 c -1.064708,-0.28529 -1.489503,0.48553 -1.719729,1.23888 l -3.783717,12.37597 c -0.299032,0.97854 -0.232806,2.20116 1.165189,2.57575 1.398002,0.3746 2.066871,-0.65106 2.296958,-1.64807 l 2.911189,-12.60977 c 0.17301,-0.74904 0.19482,-1.64748 -0.86989,-1.93276 z"
             style="opacity:1;vector-effect:none;fill:#8da1ac;fill-opacity:1;stroke:none;stroke-width:1.91309667;stroke-linecap:butt;stroke-linejoin:miter;stroke-miterlimit:4;stroke-dasharray:none;stroke-dashoffset:0;stroke-opacity:1;marker:none" />
          <path
             style="opacity:1;vector-effect:none;fill:#8da1ac;fill-opacity:1;stroke:none;stroke-width:1.91309667;stroke-linecap:butt;stroke-linejoin:miter;stroke-miterlimit:4;stroke-dasharray:none;stroke-dashoffset:0;stroke-opacity:1;marker:none"
             d="m 122.29342,66.671215 c -1.33715,-0.55386 -2.13378,0.37534 -2.49224,1.3337 l -4.53219,12.1219 c -0.27597,0.73784 -0.40841,1.60843 0.60998,2.03026 1.01837,0.42182 1.54819,-0.30473 1.86691,-1.00429 l 5.36674,-11.77622 c 0.42431,-0.9311 0.51789,-2.15149 -0.8192,-2.70535 z M 87.753738,150.05736 c -1.018364,-0.42183 -1.540137,0.28695 -1.866732,1.00381 l -5.366728,11.77622 c -0.4242,0.93114 -0.518117,2.15194 0.819014,2.70581 1.337152,0.55386 2.134173,-0.37572 2.492424,-1.33417 l 4.532191,-12.12191 c 0.269336,-0.72003 0.408178,-1.60795 -0.610169,-2.02976 z"
             id="path1120"
             inkscape:connector-curvature="0" />
          <path
             inkscape:connector-curvature="0"
             id="path1122"
             d="m 128.57093,69.766915 c -1.25341,-0.72366 -2.16451,0.0936 -2.645,0.99698 l -6.07564,11.42664 c -0.36991,0.69549 -0.61484,1.54136 0.33976,2.09249 0.9546,0.55114 1.57472,-0.10003 1.98203,-0.75201 l 6.85793,-10.97498 c 0.54221,-0.86774 0.79433,-2.06546 -0.45908,-2.78912 z M 83.44267,147.93134 c -0.954594,-0.55114 -1.564417,0.0835 -1.98178,0.75156 l -6.857929,10.97498 c -0.542105,0.8678 -0.794574,2.0659 0.458833,2.78956 1.253415,0.72366 2.164952,-0.0939 2.645244,-0.99742 l 6.075643,-11.42663 c 0.360983,-0.67874 0.614582,-1.54092 -0.340011,-2.09205 z"
             style="opacity:1;vector-effect:none;fill:#8da1ac;fill-opacity:1;stroke:none;stroke-width:1.91309667;stroke-linecap:butt;stroke-linejoin:miter;stroke-miterlimit:4;stroke-dasharray:none;stroke-dashoffset:0;stroke-opacity:1;marker:none" />
          <path
             style="opacity:1;vector-effect:none;fill:#8da1ac;fill-opacity:1;stroke:none;stroke-width:1.91309667;stroke-linecap:butt;stroke-linejoin:miter;stroke-miterlimit:4;stroke-dasharray:none;stroke-dashoffset:0;stroke-opacity:1;marker:none"
             d="m 134.39066,73.655525 c -1.14823,-0.88106 -2.15821,-0.18971 -2.7525,0.64322 l -7.51514,10.53584 c -0.45753,0.64127 -0.81078,1.44792 0.0637,2.11895 0.87449,0.67103 1.5743,0.10636 2.06322,-0.48687 l 8.23178,-9.98595 c 0.65084,-0.78955 1.0571,-1.94414 -0.0911,-2.82519 z M 79.445973,145.26083 c -0.874487,-0.67102 -1.561927,-0.12144 -2.06293,0.48646 l -8.231772,9.98595 c -0.650741,0.78962 -1.057424,1.94451 0.09079,2.82558 1.14824,0.88107 2.158696,0.18945 2.752804,-0.64361 l 7.515141,-10.53585 c 0.446517,-0.62579 0.810439,-1.44752 -0.06404,-2.11853 z"
             id="path1124"
             inkscape:connector-curvature="0" />
          <path
             style="opacity:1;vector-effect:none;fill:#8da1ac;fill-opacity:1;stroke:none;stroke-width:1.91309667;stroke-linecap:butt;stroke-linejoin:miter;stroke-miterlimit:4;stroke-dasharray:none;stroke-dashoffset:0;stroke-opacity:1;marker:none"
             d="m 139.65305,78.270495 c -1.02341,-1.0234 -2.11499,-0.46979 -2.81291,0.27844 l -8.82606,9.46478 c -0.53731,0.57607 -0.99282,1.32972 -0.2134,2.10915 0.77943,0.77942 1.54696,0.31094 2.10913,-0.21341 l 9.46479,-8.82605 c 0.74832,-0.69784 1.30185,-1.78949 0.27845,-2.81291 z M 75.832042,142.09149 c -0.77942,-0.77943 -1.532713,-0.32427 -2.108769,0.21303 l -9.46478,8.82605 c -0.74824,0.69792 -1.302196,1.78986 -0.278792,2.81326 1.023405,1.02341 2.115493,0.4696 2.813259,-0.27879 l 8.826048,-9.46479 c 0.524352,-0.56218 0.99246,-1.32935 0.213034,-2.10876 z"
             id="path1126"
             inkscape:connector-curvature="0" />
          <path
             inkscape:connector-curvature="0"
             id="path1128"
             d="m 144.26803,83.532875 c -0.88108,-1.14823 -2.03558,-0.74184 -2.8252,-0.0911 l -9.98594,8.23178 c -0.60791,0.501 -1.15791,1.18873 -0.48687,2.06324 0.67103,0.87449 1.49314,0.51019 2.11894,0.0637 l 10.53584,-7.51514 c 0.83301,-0.5942 1.52425,-1.6043 0.64323,-2.7525 z M 72.66271,138.47756 c -0.671014,-0.8745 -1.477273,-0.52157 -2.118542,-0.0641 l -10.535833,7.51515 c -0.832938,0.59429 -1.524673,1.60457 -0.643618,2.7528 0.881077,1.14824 2.036108,0.74171 2.825587,0.0908 l 9.985948,-8.23179 c 0.593267,-0.48889 1.157467,-1.18843 0.486458,-2.0629 z"
             style="opacity:1;vector-effect:none;fill:#8da1ac;fill-opacity:1;stroke:none;stroke-width:1.91309667;stroke-linecap:butt;stroke-linejoin:miter;stroke-miterlimit:4;stroke-dasharray:none;stroke-dashoffset:0;stroke-opacity:1;marker:none" />
          <path
             inkscape:connector-curvature="0"
             id="path1130"
             d="m 148.15666,89.352595 c -0.72366,-1.25341 -1.92133,-1.00119 -2.78913,-0.45908 l -10.97498,6.85793 c -0.6681,0.41736 -1.30315,1.02744 -0.75201,1.98203 0.55114,0.9546 1.41377,0.70073 2.0925,0.33976 l 11.42663,-6.07565 c 0.90344,-0.48038 1.72064,-1.39158 0.99699,-2.64499 z M 69.99222,134.48084 c -0.551135,-0.95459 -1.396561,-0.70991 -2.092055,-0.34001 l -11.426629,6.07564 c -0.903377,0.48049 -1.721073,1.39184 -0.997418,2.64525 0.723659,1.25341 1.921869,1.00113 2.789557,0.45883 l 10.974976,-6.85793 c 0.651991,-0.40731 1.302704,-1.02718 0.751569,-1.98178 z"
             style="opacity:1;vector-effect:none;fill:#8da1ac;fill-opacity:1;stroke:none;stroke-width:1.91309667;stroke-linecap:butt;stroke-linejoin:miter;stroke-miterlimit:4;stroke-dasharray:none;stroke-dashoffset:0;stroke-opacity:1;marker:none" />
          <path
             style="opacity:1;vector-effect:none;fill:#8da1ac;fill-opacity:1;stroke:none;stroke-width:1.91309667;stroke-linecap:butt;stroke-linejoin:miter;stroke-miterlimit:4;stroke-dasharray:none;stroke-dashoffset:0;stroke-opacity:1;marker:none"
             d="m 151.25238,95.630105 c -0.55386,-1.33714 -1.77421,-1.24341 -2.70534,-0.81921 l -11.77622,5.366725 c -0.71687,0.32659 -1.42612,0.84854 -1.00429,1.86693 0.42182,1.01837 1.31021,0.87926 2.03024,0.60997 l 12.12191,-4.532185 c 0.95842,-0.35835 1.88754,-1.15513 1.3337,-2.49223 z M 67.866231,130.16977 c -0.421816,-1.01837 -1.291946,-0.88614 -2.029779,-0.61018 l -12.121897,4.5322 c -0.958368,0.35846 -1.888013,1.15528 -1.334162,2.49242 0.553869,1.33715 1.77476,1.24342 2.705806,0.81902 l 11.776225,-5.36674 c 0.699592,-0.3187 1.425622,-0.84837 1.003807,-1.86672 z"
             id="path1132"
             inkscape:connector-curvature="0" />
          <path
             style="opacity:1;vector-effect:none;fill:#8da1ac;fill-opacity:1;stroke:none;stroke-width:1.91309667;stroke-linecap:butt;stroke-linejoin:miter;stroke-miterlimit:4;stroke-dasharray:none;stroke-dashoffset:0;stroke-opacity:1;marker:none"
             d="m 153.50226,102.25797 c -0.3746,-1.398 -1.59674,-1.46435 -2.57527,-1.16532 l -12.37599,3.78371 c -0.75335,0.23023 -1.52466,0.65516 -1.23938,1.71987 0.2853,1.06472 1.18424,1.04276 1.93327,0.86975 l 12.60977,-2.91119 c 0.99699,-0.23018 2.02218,-0.89882 1.6476,-2.29682 z m -87.181111,23.3601 c -0.285286,-1.06471 -1.165233,-1.04718 -1.932767,-0.86989 l -12.609762,2.91119 c -0.996957,0.2303 -2.022664,0.89896 -1.648071,2.29696 0.374588,1.398 1.59727,1.46443 2.57575,1.16519 l 12.375975,-3.78372 c 0.735193,-0.22469 1.52417,-0.65502 1.238875,-1.71973 z"
             id="path1134"
             inkscape:connector-curvature="0" />
          <path
             inkscape:connector-curvature="0"
             id="path1136"
             d="m 154.86776,109.12281 c -0.18892,-1.43494 -1.39194,-1.66024 -2.40114,-1.49149 l -12.76397,2.13596 c -0.77697,0.12992 -1.59714,0.45052 -1.45326,1.54338 0.14387,1.09285 1.038,1.18841 1.80319,1.11465 l 12.88188,-1.24038 c 1.01851,-0.0981 2.12219,-0.62724 1.9333,-2.06212 z m -89.484368,11.78084 c -0.143866,-1.09285 -1.018574,-1.19032 -1.802691,-1.11473 l -12.881869,1.24038 c -1.018491,0.0982 -2.122694,0.62727 -1.933794,2.06219 0.18892,1.43494 1.39247,1.66039 2.401637,1.49142 l 12.763978,-2.13596 c 0.758232,-0.12676 1.596615,-0.45048 1.452739,-1.5433 z"
             style="opacity:1;vector-effect:none;fill:#8da1ac;fill-opacity:1;stroke:none;stroke-width:1.91309667;stroke-linecap:butt;stroke-linejoin:miter;stroke-miterlimit:4;stroke-dasharray:none;stroke-dashoffset:0;stroke-opacity:1;marker:none" />
          <path
             style="opacity:1;vector-effect:none;fill:#8da1ac;fill-opacity:1;stroke:none;stroke-width:1.91309667;stroke-linecap:butt;stroke-linejoin:miter;stroke-miterlimit:4;stroke-dasharray:none;stroke-dashoffset:0;stroke-opacity:1;marker:none"
             d="m 155.32556,116.10714 c 0,-1.44731 -1.16331,-1.82772 -2.18591,-1.79214 l -12.93358,0.45166 c -0.78727,0.0274 -1.64228,0.23821 -1.64227,1.34048 0,1.10228 0.87399,1.31374 1.64227,1.34049 l 12.93358,0.45165 c 1.02259,0.0357 2.18591,-0.34482 2.18591,-1.79214 z m -90.256514,0 c 4e-6,-1.10227 -0.854522,-1.31307 -1.64176,-1.34049 L 50.49371,114.315 c -1.02259,-0.0356 -2.186409,0.34483 -2.186414,1.79214 0,1.44732 1.163796,1.82796 2.186413,1.79214 l 12.933574,-0.45165 c 0.768297,-0.0268 1.641766,-0.23822 1.641763,-1.34049 z"
             id="path1138"
             inkscape:connector-curvature="0" />
          <path
             inkscape:connector-curvature="0"
             id="path1140"
             d="m 154.86779,123.09148 c 0.18891,-1.43492 -0.91481,-1.96392 -1.93329,-2.06212 l -12.88188,-1.24038 c -0.78412,-0.0756 -1.65933,0.0218 -1.80321,1.11464 -0.14389,1.09284 0.69504,1.41656 1.45325,1.54336 l 12.76397,2.13596 c 1.00919,0.16887 2.21223,-0.0566 2.40114,-1.49149 z M 65.383427,111.31065 c 0.143876,-1.09284 -0.675794,-1.41339 -1.452752,-1.54332 l -12.763973,-2.13595 c -1.009201,-0.16875 -2.212707,0.0565 -2.401629,1.49142 -0.188909,1.43494 0.91528,1.96421 1.933785,2.06219 l 12.881884,1.24038 c 0.765209,0.0738 1.658809,-0.0219 1.802681,-1.11473 z"
             style="opacity:1;vector-effect:none;fill:#8da1ac;fill-opacity:1;stroke:none;stroke-width:1.91309667;stroke-linecap:butt;stroke-linejoin:miter;stroke-miterlimit:4;stroke-dasharray:none;stroke-dashoffset:0;stroke-opacity:1;marker:none" />
          <path
             inkscape:connector-curvature="0"
             id="path1142"
             d="m 153.5023,129.95633 c 0.37459,-1.398 -0.65064,-2.06653 -1.64759,-2.29683 l -12.60977,-2.9112 c -0.76754,-0.17729 -1.64798,-0.19495 -1.93327,0.86976 -0.28529,1.06472 0.50419,1.49518 1.23938,1.71986 l 12.37598,3.78372 c 0.9785,0.29915 2.20067,0.23269 2.57527,-1.16531 z M 66.32119,106.59622 c 0.285296,-1.06471 -0.48553,-1.4895 -1.238874,-1.71973 l -12.375973,-3.78372 c -0.978537,-0.29903 -2.201163,-0.2328 -2.575751,1.16519 -0.374597,1.398 0.651061,2.06687 1.648069,2.29696 l 12.609772,2.91119 c 0.749038,0.17301 1.647481,0.19482 1.932757,-0.86989 z"
             style="opacity:1;vector-effect:none;fill:#8da1ac;fill-opacity:1;stroke:none;stroke-width:1.91309667;stroke-linecap:butt;stroke-linejoin:miter;stroke-miterlimit:4;stroke-dasharray:none;stroke-dashoffset:0;stroke-opacity:1;marker:none" />
          <path
             style="opacity:1;vector-effect:none;fill:#8da1ac;fill-opacity:1;stroke:none;stroke-width:1.91309667;stroke-linecap:butt;stroke-linejoin:miter;stroke-miterlimit:4;stroke-dasharray:none;stroke-dashoffset:0;stroke-opacity:1;marker:none"
             d="m 151.25244,136.58421 c 0.55386,-1.33715 -0.37534,-2.13378 -1.33371,-2.49224 l -12.1219,-4.53219 c -0.73783,-0.27597 -1.60842,-0.40842 -2.03025,0.60998 -0.42182,1.01837 0.30473,1.54819 1.0043,1.8669 l 11.77623,5.36674 c 0.93109,0.42431 2.15149,0.51789 2.70535,-0.8192 z M 67.866279,102.04453 c 0.421832,-1.01836 -0.286943,-1.54014 -1.003759,-1.86676 L 55.086293,94.811055 c -0.931139,-0.4242 -2.151935,-0.51812 -2.705804,0.81901 -0.553866,1.33715 0.375715,2.13418 1.334159,2.49243 l 12.121913,4.532185 c 0.720025,0.26934 1.607944,0.40818 2.029753,-0.61017 z"
             id="path1144"
             inkscape:connector-curvature="0" />
          <path
             style="opacity:1;vector-effect:none;fill:#8da1ac;fill-opacity:1;stroke:none;stroke-width:1.91309667;stroke-linecap:butt;stroke-linejoin:miter;stroke-miterlimit:4;stroke-dasharray:none;stroke-dashoffset:0;stroke-opacity:1;marker:none"
             d="m 148.15665,142.86167 c 0.72366,-1.25341 -0.0936,-2.16451 -0.99699,-2.64499 l -11.42663,-6.07565 c -0.69549,-0.36991 -1.54136,-0.61484 -2.09249,0.33975 -0.55114,0.95461 0.10003,1.57473 0.75201,1.98204 l 10.97498,6.85793 c 0.86774,0.54221 2.06546,0.79433 2.78912,-0.45908 z M 69.992218,97.733415 c 0.551132,-0.95459 -0.08348,-1.56441 -0.75157,-1.98178 l -10.974973,-6.85793 c -0.867805,-0.5421 -2.065905,-0.79457 -2.789563,0.45884 -0.723655,1.25341 0.09393,2.16495 0.997421,2.64524 l 11.426629,6.07564 c 0.678736,0.36099 1.540916,0.61459 2.092056,-0.34001 z"
             id="path1146"
             inkscape:connector-curvature="0" />
          <path
             inkscape:connector-curvature="0"
             id="path1148"
             d="m 144.26803,148.6814 c 0.88107,-1.14823 0.18972,-2.15822 -0.64321,-2.7525 l -10.53584,-7.51514 c -0.64127,-0.45753 -1.44792,-0.81078 -2.11895,0.0637 -0.67103,0.87449 -0.10636,1.5743 0.48687,2.06322 l 9.98594,8.23179 c 0.78955,0.65084 1.94415,1.05709 2.82519,-0.0911 z M 72.66272,93.736725 c 0.671026,-0.87449 0.121447,-1.56193 -0.486458,-2.06293 l -9.985949,-8.23177 c -0.789619,-0.65075 -1.944508,-1.05743 -2.82558,0.0908 -0.881071,1.14824 -0.189453,2.15869 0.643611,2.7528 l 10.535846,7.51514 c 0.625798,0.44652 1.447521,0.81044 2.11853,-0.064 z"
             style="opacity:1;vector-effect:none;fill:#8da1ac;fill-opacity:1;stroke:none;stroke-width:1.91309667;stroke-linecap:butt;stroke-linejoin:miter;stroke-miterlimit:4;stroke-dasharray:none;stroke-dashoffset:0;stroke-opacity:1;marker:none" />
          <path
             inkscape:connector-curvature="0"
             id="path1150"
             d="m 139.65306,153.94379 c 1.02341,-1.02341 0.4698,-2.11499 -0.27843,-2.81291 l -9.46479,-8.82607 c -0.57606,-0.5373 -1.32971,-0.99281 -2.10914,-0.2134 -0.77942,0.77944 -0.31094,1.54697 0.21341,2.10914 l 8.82605,9.46479 c 0.69784,0.74832 1.78949,1.30184 2.8129,0.27845 z M 75.832067,90.122795 c 0.779423,-0.77942 0.324268,-1.53272 -0.213037,-2.10877 l -8.826045,-9.46478 c -0.697924,-0.74824 -1.789854,-1.3022 -2.813261,-0.27879 -1.02341,1.0234 -0.469599,2.11549 0.27879,2.81326 l 9.464786,8.82604 c 0.562183,0.52435 1.329349,0.99246 2.108767,0.21304 z"
             style="opacity:1;vector-effect:none;fill:#8da1ac;fill-opacity:1;stroke:none;stroke-width:1.91309667;stroke-linecap:butt;stroke-linejoin:miter;stroke-miterlimit:4;stroke-dasharray:none;stroke-dashoffset:0;stroke-opacity:1;marker:none" />
          <path
             style="opacity:1;vector-effect:none;fill:#8da1ac;fill-opacity:1;stroke:none;stroke-width:1.91309667;stroke-linecap:butt;stroke-linejoin:miter;stroke-miterlimit:4;stroke-dasharray:none;stroke-dashoffset:0;stroke-opacity:1;marker:none"
             d="m 134.39069,158.55877 c 1.14823,-0.88108 0.74184,-2.03558 0.0911,-2.8252 l -8.23178,-9.98594 c -0.501,-0.60791 -1.18874,-1.1579 -2.06324,-0.48687 -0.8745,0.67102 -0.51019,1.49314 -0.0637,2.11893 l 7.51514,10.53585 c 0.59421,0.833 1.6043,1.52425 2.7525,0.64323 z M 79.445996,86.953455 c 0.874503,-0.67101 0.52156,-1.47727 0.06404,-2.11854 l -7.515135,-10.53583 c -0.594289,-0.83294 -1.604579,-1.52467 -2.752806,-0.64362 -1.148235,0.88108 -0.741705,2.03611 -0.09079,2.82559 l 8.231784,9.98595 c 0.488894,0.59326 1.188435,1.15747 2.062907,0.48645 z"
             id="path1152"
             inkscape:connector-curvature="0" />
          <path
             inkscape:connector-curvature="0"
             id="path1154"
             d="m 128.57098,162.4474 c 1.25341,-0.72366 1.0012,-1.92132 0.45909,-2.78913 l -6.85794,-10.97497 c -0.41737,-0.6681 -1.02744,-1.30316 -1.98203,-0.75201 -0.9546,0.55114 -0.70074,1.41377 -0.33976,2.09249 l 6.07565,11.42663 c 0.48038,0.90344 1.39158,1.72065 2.64499,0.99699 z M 83.442722,84.282975 c 0.954596,-0.55113 0.709891,-1.39657 0.340019,-2.09205 l -6.075648,-11.42663 c -0.480464,-0.90339 -1.391836,-1.72107 -2.645246,-0.99742 -1.253415,0.72366 -1.001161,1.92185 -0.458832,2.78956 l 6.857928,10.97497 c 0.407357,0.65197 1.027187,1.30271 1.981779,0.75157 z"
             style="opacity:1;vector-effect:none;fill:#8da1ac;fill-opacity:1;stroke:none;stroke-width:1.91309667;stroke-linecap:butt;stroke-linejoin:miter;stroke-miterlimit:4;stroke-dasharray:none;stroke-dashoffset:0;stroke-opacity:1;marker:none" />
          <path
             style="opacity:1;vector-effect:none;fill:#8da1ac;fill-opacity:1;stroke:none;stroke-width:1.91309667;stroke-linecap:butt;stroke-linejoin:miter;stroke-miterlimit:4;stroke-dasharray:none;stroke-dashoffset:0;stroke-opacity:1;marker:none"
             d="m 122.29348,165.54313 c 1.33713,-0.55386 1.2434,-1.77421 0.8192,-2.70534 l -5.36674,-11.77623 c -0.32658,-0.71686 -0.84854,-1.42612 -1.86691,-1.0043 -1.01837,0.42181 -0.87925,1.3102 -0.60996,2.03023 l 4.53219,12.1219 c 0.35835,0.95842 1.15513,1.88755 2.49224,1.33371 z M 87.753795,82.156995 c 1.018365,-0.42182 0.886135,-1.29195 0.610178,-2.02979 l -4.532199,-12.12189 c -0.358459,-0.95837 -1.155284,-1.88802 -2.492422,-1.33417 -1.337149,0.55387 -1.243416,1.77476 -0.819017,2.70581 l 5.366742,11.77622 c 0.318692,0.69959 0.84837,1.42562 1.866725,1.00381 z"
             id="path1156"
             inkscape:connector-curvature="0" />
          <path
             style="opacity:1;vector-effect:none;fill:#8da1ac;fill-opacity:1;stroke:none;stroke-width:1.91309667;stroke-linecap:butt;stroke-linejoin:miter;stroke-miterlimit:4;stroke-dasharray:none;stroke-dashoffset:0;stroke-opacity:1;marker:none"
             d="m 115.6656,167.793 c 1.398,-0.37459 1.46435,-1.59673 1.16532,-2.57527 l -3.78371,-12.37598 c -0.23023,-0.75335 -0.65516,-1.52467 -1.71987,-1.23938 -1.06472,0.28529 -1.04277,1.18423 -0.86975,1.93327 l 2.91119,12.60977 c 0.23018,0.99698 0.89882,2.02218 2.29682,1.64759 z M 92.305495,80.611905 c 1.06471,-0.28528 1.04718,-1.16523 0.86989,-1.93276 l -2.911188,-12.60977 c -0.230301,-0.99695 -0.898971,-2.02266 -2.29696,-1.64807 -1.398002,0.37459 -1.464431,1.59727 -1.165191,2.57575 l 3.783721,12.37597 c 0.224688,0.7352 0.655022,1.52418 1.719728,1.23888 z"
             id="path1158"
             inkscape:connector-curvature="0" />
          <path
             inkscape:connector-curvature="0"
             id="path1160"
             d="m 108.80076,169.15851 c 1.43493,-0.18892 1.66024,-1.39195 1.49149,-2.40115 l -2.13596,-12.76397 c -0.12992,-0.77696 -0.45051,-1.59714 -1.54338,-1.45326 -1.09285,0.14388 -1.18841,1.038 -1.11464,1.8032 l 1.24038,12.88189 c 0.0981,1.0185 0.62724,2.12219 2.06213,1.9333 z M 97.019915,79.674145 c 1.09284,-0.14386 1.19033,-1.01857 1.11478,-1.80266 l -1.24039,-12.88187 c -0.0982,-1.01849 -0.62727,-2.12269 -2.06219,-1.93379 -1.43494,0.18891 -1.6604,1.39246 -1.49143,2.40163 l 2.13597,12.76398 c 0.12675,0.75823 0.45047,1.59661 1.5433,1.45273 z"
             style="opacity:1;vector-effect:none;fill:#8da1ac;fill-opacity:1;stroke:none;stroke-width:1.91309667;stroke-linecap:butt;stroke-linejoin:miter;stroke-miterlimit:4;stroke-dasharray:none;stroke-dashoffset:0;stroke-opacity:1;marker:none" />
        </g>
      </g>
      <g
         clip-path="url(#clipPath1597)"
         id="g1580">
        <path
           style="color:#000000;font-style:normal;font-variant:normal;font-weight:normal;font-stretch:normal;font-size:medium;line-height:normal;font-family:sans-serif;font-variant-ligatures:normal;font-variant-position:normal;font-variant-caps:normal;font-variant-numeric:normal;font-variant-alternates:normal;font-feature-settings:normal;text-indent:0;text-align:start;text-decoration:none;text-decoration-line:none;text-decoration-style:solid;text-decoration-color:#000000;letter-spacing:normal;word-spacing:normal;text-transform:none;writing-mode:lr-tb;direction:ltr;text-orientation:mixed;dominant-baseline:auto;baseline-shift:baseline;text-anchor:start;white-space:normal;shape-padding:0;clip-rule:nonzero;display:inline;overflow:visible;visibility:visible;opacity:1;isolation:auto;mix-blend-mode:normal;color-interpolation:sRGB;color-interpolation-filters:linearRGB;solid-color:#000000;solid-opacity:1;vector-effect:none;fill:#0d1f32;fill-opacity:1;fill-rule:nonzero;stroke:none;stroke-width:5;stroke-linecap:butt;stroke-linejoin:miter;stroke-miterlimit:4;stroke-dasharray:none;stroke-dashoffset:0;stroke-opacity:1;marker:none;color-rendering:auto;image-rendering:auto;shape-rendering:auto;text-rendering:auto;enable-background:accumulate"
           d="m 101.81652,146.26798 c -25.577098,0 -51.154769,4.43947 -75.554692,13.32031 l 11.970703,32.89063 c 41.074529,-14.94991 86.093449,-14.94991 127.167969,0 l 11.97071,-32.89063 c -24.39993,-8.88084 -49.9776,-13.32031 -75.55469,-13.32031 z"
           id="path1162"
           inkscape:connector-curvature="0" />
        <path
           id="path1243"
           d="m 143.62672,139.16138 33.74471,20.42665 -8.24033,22.64048 c 7.51416,2.73508 14.87578,5.92892 22.03896,9.57874 2.12613,-8.45722 -3.69611,-16.16144 -4.97178,-21.64207 4.48383,-2.93476 16.89147,-3.82672 20.86022,-9.54363 -20.05922,-10.22064 -41.43284,-17.4258 -63.43178,-21.46017 z"
           style="color:#000000;font-style:normal;font-variant:normal;font-weight:normal;font-stretch:normal;font-size:medium;line-height:normal;font-family:sans-serif;font-variant-ligatures:normal;font-variant-position:normal;font-variant-caps:normal;font-variant-numeric:normal;font-variant-alternates:normal;font-feature-settings:normal;text-indent:0;text-align:start;text-decoration:none;text-decoration-line:none;text-decoration-style:solid;text-decoration-color:#000000;letter-spacing:normal;word-spacing:normal;text-transform:none;writing-mode:lr-tb;direction:ltr;text-orientation:mixed;dominant-baseline:auto;baseline-shift:baseline;text-anchor:start;white-space:normal;shape-padding:0;clip-rule:nonzero;display:inline;overflow:visible;visibility:visible;opacity:1;isolation:auto;mix-blend-mode:normal;color-interpolation:sRGB;color-interpolation-filters:linearRGB;solid-color:#000000;solid-opacity:1;vector-effect:none;fill:#0d1f32;fill-opacity:1;fill-rule:nonzero;stroke:none;stroke-width:5;stroke-linecap:butt;stroke-linejoin:miter;stroke-miterlimit:4;stroke-dasharray:none;stroke-dashoffset:0;stroke-opacity:1;marker:none;color-rendering:auto;image-rendering:auto;shape-rendering:auto;text-rendering:auto;enable-background:accumulate"
           inkscape:connector-curvature="0" />
        <path
           id="use1245"
           d="m 60.006004,139.16138 -33.744709,20.42665 8.240323,22.64047 c -7.514156,2.73508 -14.875782,5.92892 -22.038963,9.57874 -2.12612,-8.45722 3.696118,-16.16144 4.971788,-21.64207 -4.48383,-2.93476 -16.89147317,-3.82672 -20.8602231,-9.54362 C 16.633444,150.4009 38.007056,143.19574 60.006004,139.16138 Z"
           style="color:#000000;font-style:normal;font-variant:normal;font-weight:normal;font-stretch:normal;font-size:medium;line-height:normal;font-family:sans-serif;font-variant-ligatures:normal;font-variant-position:normal;font-variant-caps:normal;font-variant-numeric:normal;font-variant-alternates:normal;font-feature-settings:normal;text-indent:0;text-align:start;text-decoration:none;text-decoration-line:none;text-decoration-style:solid;text-decoration-color:#000000;letter-spacing:normal;word-spacing:normal;text-transform:none;writing-mode:lr-tb;direction:ltr;text-orientation:mixed;dominant-baseline:auto;baseline-shift:baseline;text-anchor:start;white-space:normal;shape-padding:0;clip-rule:nonzero;display:inline;overflow:visible;visibility:visible;opacity:1;isolation:auto;mix-blend-mode:normal;color-interpolation:sRGB;color-interpolation-filters:linearRGB;solid-color:#000000;solid-opacity:1;vector-effect:none;fill:#0d1f32;fill-opacity:1;fill-rule:nonzero;stroke:none;stroke-width:5;stroke-linecap:butt;stroke-linejoin:miter;stroke-miterlimit:4;stroke-dasharray:none;stroke-dashoffset:0;stroke-opacity:1;marker:none;color-rendering:auto;image-rendering:auto;shape-rendering:auto;text-rendering:auto;enable-background:accumulate"
           inkscape:connector-curvature="0" />
      </g>
    </g>
    <g
       id="g1676"
       transform="translate(-5.9038778)">
      <path
         sodipodi:type="star"
         style="opacity:1;vector-effect:none;fill:#0d1f32;fill-opacity:1;stroke:none;stroke-width:0.26458332px;stroke-linecap:butt;stroke-linejoin:miter;stroke-miterlimit:4;stroke-dasharray:none;stroke-dashoffset:0;stroke-opacity:1;marker:none"
         id="path1333"
         sodipodi:sides="10"
         sodipodi:cx="95.106354"
         sodipodi:cy="500.97519"
         sodipodi:r1="76.411041"
         sodipodi:r2="69.296295"
         sodipodi:arg1="-1.5707963"
         sodipodi:arg2="-1.256637"
         inkscape:flatsided="false"
         inkscape:rounded="0.4"
         inkscape:randomized="0"
         d="m 95.106356,424.56415 c 9.540914,0 12.339784,7.55804 21.413734,10.50635 9.07395,2.9483 15.78079,-1.52115 23.49955,4.08686 7.71876,5.60801 5.54059,13.36773 11.1486,21.08649 5.608,7.71876 13.66103,8.04508 16.60933,17.11903 2.94831,9.07395 -3.37492,14.0714 -3.37492,23.61231 0,9.54091 6.32323,14.53837 3.37492,23.61231 -2.9483,9.07395 -11.00133,9.40027 -16.60934,17.11903 -5.60801,7.71876 -3.42983,15.47848 -11.14859,21.08649 -7.71877,5.60801 -14.42561,1.13856 -23.49956,4.08686 -9.07394,2.94831 -11.87282,10.50635 -21.413728,10.50635 -9.540914,0 -12.339787,-7.55804 -21.413735,-10.50635 -9.073946,-2.9483 -15.780789,1.52115 -23.499548,-4.08686 -7.718761,-5.60801 -5.54059,-13.36773 -11.148598,-21.08649 -5.608007,-7.71876 -13.661033,-8.04509 -16.609337,-17.11903 -2.948303,-9.07395 3.374924,-14.0714 3.374925,-23.61232 0,-9.54091 -6.323228,-14.53836 -3.374923,-23.6123 2.948305,-9.07395 11.001331,-9.40027 16.60934,-17.11903 5.608007,-7.71876 3.429836,-15.47849 11.148596,-21.08649 7.718762,-5.60801 14.425605,-1.13856 23.499553,-4.08687 9.073946,-2.9483 11.872819,-10.50634 21.413731,-10.50634 z"
         inkscape:transform-center-x="2.1858547"
         inkscape:transform-center-y="-0.26773096" />
      <circle
         style="opacity:1;vector-effect:none;fill:#ffffff;fill-opacity:1;stroke:none;stroke-width:0.26458332px;stroke-linecap:butt;stroke-linejoin:miter;stroke-miterlimit:4;stroke-dasharray:none;stroke-dashoffset:0;stroke-opacity:1;marker:none"
         id="circle1335"
         cx="95.106323"
         cy="500.97519"
         r="62.821606" />
      <circle
         id="circle1337"
         style="opacity:1;vector-effect:none;fill:none;fill-opacity:1;stroke:#8da1ac;stroke-width:3;stroke-linecap:butt;stroke-linejoin:miter;stroke-miterlimit:4;stroke-dasharray:none;stroke-dashoffset:0;stroke-opacity:1;marker:none"
         r="56.018028"
         cy="500.97519"
         cx="95.106323" />
      <circle
         cx="95.106323"
         cy="500.97519"
         r="35.974968"
         style="opacity:1;vector-effect:none;fill:#8da1ac;fill-opacity:1;stroke:none;stroke-width:1.92661023;stroke-linecap:butt;stroke-linejoin:miter;stroke-miterlimit:4;stroke-dasharray:none;stroke-dashoffset:0;stroke-opacity:1;marker:none"
         id="circle1339" />
      <g
         transform="translate(-6.71009,384.86812)"
         id="g1391">
        <path
           inkscape:connector-curvature="0"
           id="path1341"
           d="m 101.81635,62.598091 c -1.44731,0 -1.82772,1.163323 -1.79214,2.185913 l 0.45165,12.933577 c 0.0274,0.78727 0.23822,1.642277 1.34049,1.642277 1.10228,0 1.31373,-0.873998 1.34048,-1.642277 l 0.45166,-12.933577 c 0.0357,-1.02259 -0.34482,-2.185913 -1.79214,-2.185913 z m 0,90.256509 c -1.10227,0 -1.31309,0.8545 -1.34049,1.64177 l -0.45165,12.93357 c -0.03558,1.02259 0.34483,2.18641 1.79214,2.18641 1.44732,0 1.82794,-1.16382 1.79214,-2.18641 l -0.45166,-12.93357 c -0.0267,-0.7683 -0.23821,-1.64177 -1.34048,-1.64177 z"
           style="opacity:1;vector-effect:none;fill:#8da1ac;fill-opacity:1;stroke:none;stroke-width:1.91309667;stroke-linecap:butt;stroke-linejoin:miter;stroke-miterlimit:4;stroke-dasharray:none;stroke-dashoffset:0;stroke-opacity:1;marker:none" />
        <path
           inkscape:connector-curvature="0"
           style="opacity:1;vector-effect:none;fill:#8da1ac;fill-opacity:1;stroke:none;stroke-width:1.91309667;stroke-linecap:butt;stroke-linejoin:miter;stroke-miterlimit:4;stroke-dasharray:none;stroke-dashoffset:0;stroke-opacity:1;marker:none"
           d="m 101.81635,62.598091 c -1.44731,0 -1.82772,1.163323 -1.79214,2.185913 l 0.45165,12.933577 c 0.0274,0.78727 0.23822,1.642277 1.34049,1.642277 1.10228,0 1.31373,-0.873998 1.34048,-1.642277 l 0.45166,-12.933577 c 0.0357,-1.02259 -0.34482,-2.185913 -1.79214,-2.185913 z m 0,90.256509 c -1.10227,0 -1.31309,0.8545 -1.34049,1.64177 l -0.45165,12.93357 c -0.03558,1.02259 0.34483,2.18641 1.79214,2.18641 1.44732,0 1.82794,-1.16382 1.79214,-2.18641 l -0.45166,-12.93357 c -0.0267,-0.7683 -0.23821,-1.64177 -1.34048,-1.64177 z"
           id="path1343" />
        <path
           inkscape:connector-curvature="0"
           id="path1345"
           d="m 108.8007,63.055865 c -1.43493,-0.18891 -1.96393,0.91481 -2.06213,1.93329 l -1.24038,12.88188 c -0.0756,0.78412 0.0218,1.65932 1.11466,1.8032 1.09285,0.14388 1.41657,-0.69504 1.54337,-1.45326 l 2.13596,-12.76397 c 0.16887,-1.00919 -0.0566,-2.21222 -1.49148,-2.40114 z M 97.019855,152.54022 c -1.09284,-0.14388 -1.41339,0.67579 -1.54332,1.45275 l -2.13595,12.76397 c -0.16875,1.0092 0.0565,2.21271 1.49142,2.40163 1.43494,0.18891 1.96421,-0.91528 2.06219,-1.93379 l 1.24038,-12.88188 c 0.0738,-0.76521 -0.0219,-1.65881 -1.11472,-1.80268 z"
           style="opacity:1;vector-effect:none;fill:#8da1ac;fill-opacity:1;stroke:none;stroke-width:1.91309667;stroke-linecap:butt;stroke-linejoin:miter;stroke-miterlimit:4;stroke-dasharray:none;stroke-dashoffset:0;stroke-opacity:1;marker:none" />
        <path
           inkscape:connector-curvature="0"
           id="path1347"
           d="m 115.66554,64.421355 c -1.398,-0.37459 -2.06653,0.65064 -2.29683,1.64759 l -2.9112,12.60977 c -0.17729,0.76754 -0.19495,1.64798 0.86976,1.93327 1.06472,0.28529 1.49518,-0.5042 1.71986,-1.23938 l 3.78372,-12.37598 c 0.29915,-0.97851 0.23269,-2.20067 -1.16531,-2.57527 z M 92.305425,151.60245 c -1.064708,-0.28529 -1.489503,0.48553 -1.719729,1.23888 l -3.783717,12.37597 c -0.299032,0.97854 -0.232806,2.20116 1.165189,2.57575 1.398002,0.3746 2.066871,-0.65106 2.296958,-1.64807 l 2.911189,-12.60977 c 0.17301,-0.74904 0.19482,-1.64748 -0.86989,-1.93276 z"
           style="opacity:1;vector-effect:none;fill:#8da1ac;fill-opacity:1;stroke:none;stroke-width:1.91309667;stroke-linecap:butt;stroke-linejoin:miter;stroke-miterlimit:4;stroke-dasharray:none;stroke-dashoffset:0;stroke-opacity:1;marker:none" />
        <path
           style="opacity:1;vector-effect:none;fill:#8da1ac;fill-opacity:1;stroke:none;stroke-width:1.91309667;stroke-linecap:butt;stroke-linejoin:miter;stroke-miterlimit:4;stroke-dasharray:none;stroke-dashoffset:0;stroke-opacity:1;marker:none"
           d="m 122.29342,66.671215 c -1.33715,-0.55386 -2.13378,0.37534 -2.49224,1.3337 l -4.53219,12.1219 c -0.27597,0.73784 -0.40841,1.60843 0.60998,2.03026 1.01837,0.42182 1.54819,-0.30473 1.86691,-1.00429 l 5.36674,-11.77622 c 0.42431,-0.9311 0.51789,-2.15149 -0.8192,-2.70535 z M 87.753738,150.05736 c -1.018364,-0.42183 -1.540137,0.28695 -1.866732,1.00381 l -5.366728,11.77622 c -0.4242,0.93114 -0.518117,2.15194 0.819014,2.70581 1.337152,0.55386 2.134173,-0.37572 2.492424,-1.33417 l 4.532191,-12.12191 c 0.269336,-0.72003 0.408178,-1.60795 -0.610169,-2.02976 z"
           id="path1349"
           inkscape:connector-curvature="0" />
        <path
           inkscape:connector-curvature="0"
           id="path1351"
           d="m 128.57093,69.766915 c -1.25341,-0.72366 -2.16451,0.0936 -2.645,0.99698 l -6.07564,11.42664 c -0.36991,0.69549 -0.61484,1.54136 0.33976,2.09249 0.9546,0.55114 1.57472,-0.10003 1.98203,-0.75201 l 6.85793,-10.97498 c 0.54221,-0.86774 0.79433,-2.06546 -0.45908,-2.78912 z M 83.44267,147.93134 c -0.954594,-0.55114 -1.564417,0.0835 -1.98178,0.75156 l -6.857929,10.97498 c -0.542105,0.8678 -0.794574,2.0659 0.458833,2.78956 1.253415,0.72366 2.164952,-0.0939 2.645244,-0.99742 l 6.075643,-11.42663 c 0.360983,-0.67874 0.614582,-1.54092 -0.340011,-2.09205 z"
           style="opacity:1;vector-effect:none;fill:#8da1ac;fill-opacity:1;stroke:none;stroke-width:1.91309667;stroke-linecap:butt;stroke-linejoin:miter;stroke-miterlimit:4;stroke-dasharray:none;stroke-dashoffset:0;stroke-opacity:1;marker:none" />
        <path
           style="opacity:1;vector-effect:none;fill:#8da1ac;fill-opacity:1;stroke:none;stroke-width:1.91309667;stroke-linecap:butt;stroke-linejoin:miter;stroke-miterlimit:4;stroke-dasharray:none;stroke-dashoffset:0;stroke-opacity:1;marker:none"
           d="m 134.39066,73.655525 c -1.14823,-0.88106 -2.15821,-0.18971 -2.7525,0.64322 l -7.51514,10.53584 c -0.45753,0.64127 -0.81078,1.44792 0.0637,2.11895 0.87449,0.67103 1.5743,0.10636 2.06322,-0.48687 l 8.23178,-9.98595 c 0.65084,-0.78955 1.0571,-1.94414 -0.0911,-2.82519 z M 79.445973,145.26083 c -0.874487,-0.67102 -1.561927,-0.12144 -2.06293,0.48646 l -8.231772,9.98595 c -0.650741,0.78962 -1.057424,1.94451 0.09079,2.82558 1.14824,0.88107 2.158696,0.18945 2.752804,-0.64361 l 7.515141,-10.53585 c 0.446517,-0.62579 0.810439,-1.44752 -0.06404,-2.11853 z"
           id="path1353"
           inkscape:connector-curvature="0" />
        <path
           style="opacity:1;vector-effect:none;fill:#8da1ac;fill-opacity:1;stroke:none;stroke-width:1.91309667;stroke-linecap:butt;stroke-linejoin:miter;stroke-miterlimit:4;stroke-dasharray:none;stroke-dashoffset:0;stroke-opacity:1;marker:none"
           d="m 139.65305,78.270495 c -1.02341,-1.0234 -2.11499,-0.46979 -2.81291,0.27844 l -8.82606,9.46478 c -0.53731,0.57607 -0.99282,1.32972 -0.2134,2.10915 0.77943,0.77942 1.54696,0.31094 2.10913,-0.21341 l 9.46479,-8.82605 c 0.74832,-0.69784 1.30185,-1.78949 0.27845,-2.81291 z M 75.832042,142.09149 c -0.77942,-0.77943 -1.532713,-0.32427 -2.108769,0.21303 l -9.46478,8.82605 c -0.74824,0.69792 -1.302196,1.78986 -0.278792,2.81326 1.023405,1.02341 2.115493,0.4696 2.813259,-0.27879 l 8.826048,-9.46479 c 0.524352,-0.56218 0.99246,-1.32935 0.213034,-2.10876 z"
           id="path1355"
           inkscape:connector-curvature="0" />
        <path
           inkscape:connector-curvature="0"
           id="path1357"
           d="m 144.26803,83.532875 c -0.88108,-1.14823 -2.03558,-0.74184 -2.8252,-0.0911 l -9.98594,8.23178 c -0.60791,0.501 -1.15791,1.18873 -0.48687,2.06324 0.67103,0.87449 1.49314,0.51019 2.11894,0.0637 l 10.53584,-7.51514 c 0.83301,-0.5942 1.52425,-1.6043 0.64323,-2.7525 z M 72.66271,138.47756 c -0.671014,-0.8745 -1.477273,-0.52157 -2.118542,-0.0641 l -10.535833,7.51515 c -0.832938,0.59429 -1.524673,1.60457 -0.643618,2.7528 0.881077,1.14824 2.036108,0.74171 2.825587,0.0908 l 9.985948,-8.23179 c 0.593267,-0.48889 1.157467,-1.18843 0.486458,-2.0629 z"
           style="opacity:1;vector-effect:none;fill:#8da1ac;fill-opacity:1;stroke:none;stroke-width:1.91309667;stroke-linecap:butt;stroke-linejoin:miter;stroke-miterlimit:4;stroke-dasharray:none;stroke-dashoffset:0;stroke-opacity:1;marker:none" />
        <path
           inkscape:connector-curvature="0"
           id="path1359"
           d="m 148.15666,89.352595 c -0.72366,-1.25341 -1.92133,-1.00119 -2.78913,-0.45908 l -10.97498,6.85793 c -0.6681,0.41736 -1.30315,1.02744 -0.75201,1.98203 0.55114,0.9546 1.41377,0.70073 2.0925,0.33976 l 11.42663,-6.07565 c 0.90344,-0.48038 1.72064,-1.39158 0.99699,-2.64499 z M 69.99222,134.48084 c -0.551135,-0.95459 -1.396561,-0.70991 -2.092055,-0.34001 l -11.426629,6.07564 c -0.903377,0.48049 -1.721073,1.39184 -0.997418,2.64525 0.723659,1.25341 1.921869,1.00113 2.789557,0.45883 l 10.974976,-6.85793 c 0.651991,-0.40731 1.302704,-1.02718 0.751569,-1.98178 z"
           style="opacity:1;vector-effect:none;fill:#8da1ac;fill-opacity:1;stroke:none;stroke-width:1.91309667;stroke-linecap:butt;stroke-linejoin:miter;stroke-miterlimit:4;stroke-dasharray:none;stroke-dashoffset:0;stroke-opacity:1;marker:none" />
        <path
           style="opacity:1;vector-effect:none;fill:#8da1ac;fill-opacity:1;stroke:none;stroke-width:1.91309667;stroke-linecap:butt;stroke-linejoin:miter;stroke-miterlimit:4;stroke-dasharray:none;stroke-dashoffset:0;stroke-opacity:1;marker:none"
           d="m 151.25238,95.630105 c -0.55386,-1.33714 -1.77421,-1.24341 -2.70534,-0.81921 l -11.77622,5.366725 c -0.71687,0.32659 -1.42612,0.84854 -1.00429,1.86693 0.42182,1.01837 1.31021,0.87926 2.03024,0.60997 l 12.12191,-4.532185 c 0.95842,-0.35835 1.88754,-1.15513 1.3337,-2.49223 z M 67.866231,130.16977 c -0.421816,-1.01837 -1.291946,-0.88614 -2.029779,-0.61018 l -12.121897,4.5322 c -0.958368,0.35846 -1.888013,1.15528 -1.334162,2.49242 0.553869,1.33715 1.77476,1.24342 2.705806,0.81902 l 11.776225,-5.36674 c 0.699592,-0.3187 1.425622,-0.84837 1.003807,-1.86672 z"
           id="path1361"
           inkscape:connector-curvature="0" />
        <path
           style="opacity:1;vector-effect:none;fill:#8da1ac;fill-opacity:1;stroke:none;stroke-width:1.91309667;stroke-linecap:butt;stroke-linejoin:miter;stroke-miterlimit:4;stroke-dasharray:none;stroke-dashoffset:0;stroke-opacity:1;marker:none"
           d="m 153.50226,102.25797 c -0.3746,-1.398 -1.59674,-1.46435 -2.57527,-1.16532 l -12.37599,3.78371 c -0.75335,0.23023 -1.52466,0.65516 -1.23938,1.71987 0.2853,1.06472 1.18424,1.04276 1.93327,0.86975 l 12.60977,-2.91119 c 0.99699,-0.23018 2.02218,-0.89882 1.6476,-2.29682 z m -87.181111,23.3601 c -0.285286,-1.06471 -1.165233,-1.04718 -1.932767,-0.86989 l -12.609762,2.91119 c -0.996957,0.2303 -2.022664,0.89896 -1.648071,2.29696 0.374588,1.398 1.59727,1.46443 2.57575,1.16519 l 12.375975,-3.78372 c 0.735193,-0.22469 1.52417,-0.65502 1.238875,-1.71973 z"
           id="path1363"
           inkscape:connector-curvature="0" />
        <path
           inkscape:connector-curvature="0"
           id="path1365"
           d="m 154.86776,109.12281 c -0.18892,-1.43494 -1.39194,-1.66024 -2.40114,-1.49149 l -12.76397,2.13596 c -0.77697,0.12992 -1.59714,0.45052 -1.45326,1.54338 0.14387,1.09285 1.038,1.18841 1.80319,1.11465 l 12.88188,-1.24038 c 1.01851,-0.0981 2.12219,-0.62724 1.9333,-2.06212 z m -89.484368,11.78084 c -0.143866,-1.09285 -1.018574,-1.19032 -1.802691,-1.11473 l -12.881869,1.24038 c -1.018491,0.0982 -2.122694,0.62727 -1.933794,2.06219 0.18892,1.43494 1.39247,1.66039 2.401637,1.49142 l 12.763978,-2.13596 c 0.758232,-0.12676 1.596615,-0.45048 1.452739,-1.5433 z"
           style="opacity:1;vector-effect:none;fill:#8da1ac;fill-opacity:1;stroke:none;stroke-width:1.91309667;stroke-linecap:butt;stroke-linejoin:miter;stroke-miterlimit:4;stroke-dasharray:none;stroke-dashoffset:0;stroke-opacity:1;marker:none" />
        <path
           style="opacity:1;vector-effect:none;fill:#8da1ac;fill-opacity:1;stroke:none;stroke-width:1.91309667;stroke-linecap:butt;stroke-linejoin:miter;stroke-miterlimit:4;stroke-dasharray:none;stroke-dashoffset:0;stroke-opacity:1;marker:none"
           d="m 155.32556,116.10714 c 0,-1.44731 -1.16331,-1.82772 -2.18591,-1.79214 l -12.93358,0.45166 c -0.78727,0.0274 -1.64228,0.23821 -1.64227,1.34048 0,1.10228 0.87399,1.31374 1.64227,1.34049 l 12.93358,0.45165 c 1.02259,0.0357 2.18591,-0.34482 2.18591,-1.79214 z m -90.256514,0 c 4e-6,-1.10227 -0.854522,-1.31307 -1.64176,-1.34049 L 50.49371,114.315 c -1.02259,-0.0356 -2.186409,0.34483 -2.186414,1.79214 0,1.44732 1.163796,1.82796 2.186413,1.79214 l 12.933574,-0.45165 c 0.768297,-0.0268 1.641766,-0.23822 1.641763,-1.34049 z"
           id="path1367"
           inkscape:connector-curvature="0" />
        <path
           inkscape:connector-curvature="0"
           id="path1369"
           d="m 154.86779,123.09148 c 0.18891,-1.43492 -0.91481,-1.96392 -1.93329,-2.06212 l -12.88188,-1.24038 c -0.78412,-0.0756 -1.65933,0.0218 -1.80321,1.11464 -0.14389,1.09284 0.69504,1.41656 1.45325,1.54336 l 12.76397,2.13596 c 1.00919,0.16887 2.21223,-0.0566 2.40114,-1.49149 z M 65.383427,111.31065 c 0.143876,-1.09284 -0.675794,-1.41339 -1.452752,-1.54332 l -12.763973,-2.13595 c -1.009201,-0.16875 -2.212707,0.0565 -2.401629,1.49142 -0.188909,1.43494 0.91528,1.96421 1.933785,2.06219 l 12.881884,1.24038 c 0.765209,0.0738 1.658809,-0.0219 1.802681,-1.11473 z"
           style="opacity:1;vector-effect:none;fill:#8da1ac;fill-opacity:1;stroke:none;stroke-width:1.91309667;stroke-linecap:butt;stroke-linejoin:miter;stroke-miterlimit:4;stroke-dasharray:none;stroke-dashoffset:0;stroke-opacity:1;marker:none" />
        <path
           inkscape:connector-curvature="0"
           id="path1371"
           d="m 153.5023,129.95633 c 0.37459,-1.398 -0.65064,-2.06653 -1.64759,-2.29683 l -12.60977,-2.9112 c -0.76754,-0.17729 -1.64798,-0.19495 -1.93327,0.86976 -0.28529,1.06472 0.50419,1.49518 1.23938,1.71986 l 12.37598,3.78372 c 0.9785,0.29915 2.20067,0.23269 2.57527,-1.16531 z M 66.32119,106.59622 c 0.285296,-1.06471 -0.48553,-1.4895 -1.238874,-1.71973 l -12.375973,-3.78372 c -0.978537,-0.29903 -2.201163,-0.2328 -2.575751,1.16519 -0.374597,1.398 0.651061,2.06687 1.648069,2.29696 l 12.609772,2.91119 c 0.749038,0.17301 1.647481,0.19482 1.932757,-0.86989 z"
           style="opacity:1;vector-effect:none;fill:#8da1ac;fill-opacity:1;stroke:none;stroke-width:1.91309667;stroke-linecap:butt;stroke-linejoin:miter;stroke-miterlimit:4;stroke-dasharray:none;stroke-dashoffset:0;stroke-opacity:1;marker:none" />
        <path
           style="opacity:1;vector-effect:none;fill:#8da1ac;fill-opacity:1;stroke:none;stroke-width:1.91309667;stroke-linecap:butt;stroke-linejoin:miter;stroke-miterlimit:4;stroke-dasharray:none;stroke-dashoffset:0;stroke-opacity:1;marker:none"
           d="m 151.25244,136.58421 c 0.55386,-1.33715 -0.37534,-2.13378 -1.33371,-2.49224 l -12.1219,-4.53219 c -0.73783,-0.27597 -1.60842,-0.40842 -2.03025,0.60998 -0.42182,1.01837 0.30473,1.54819 1.0043,1.8669 l 11.77623,5.36674 c 0.93109,0.42431 2.15149,0.51789 2.70535,-0.8192 z M 67.866279,102.04453 c 0.421832,-1.01836 -0.286943,-1.54014 -1.003759,-1.86676 L 55.086293,94.811055 c -0.931139,-0.4242 -2.151935,-0.51812 -2.705804,0.81901 -0.553866,1.33715 0.375715,2.13418 1.334159,2.49243 l 12.121913,4.532185 c 0.720025,0.26934 1.607944,0.40818 2.029753,-0.61017 z"
           id="path1373"
           inkscape:connector-curvature="0" />
        <path
           style="opacity:1;vector-effect:none;fill:#8da1ac;fill-opacity:1;stroke:none;stroke-width:1.91309667;stroke-linecap:butt;stroke-linejoin:miter;stroke-miterlimit:4;stroke-dasharray:none;stroke-dashoffset:0;stroke-opacity:1;marker:none"
           d="m 148.15665,142.86167 c 0.72366,-1.25341 -0.0936,-2.16451 -0.99699,-2.64499 l -11.42663,-6.07565 c -0.69549,-0.36991 -1.54136,-0.61484 -2.09249,0.33975 -0.55114,0.95461 0.10003,1.57473 0.75201,1.98204 l 10.97498,6.85793 c 0.86774,0.54221 2.06546,0.79433 2.78912,-0.45908 z M 69.992218,97.733415 c 0.551132,-0.95459 -0.08348,-1.56441 -0.75157,-1.98178 l -10.974973,-6.85793 c -0.867805,-0.5421 -2.065905,-0.79457 -2.789563,0.45884 -0.723655,1.25341 0.09393,2.16495 0.997421,2.64524 l 11.426629,6.07564 c 0.678736,0.36099 1.540916,0.61459 2.092056,-0.34001 z"
           id="path1375"
           inkscape:connector-curvature="0" />
        <path
           inkscape:connector-curvature="0"
           id="path1377"
           d="m 144.26803,148.6814 c 0.88107,-1.14823 0.18972,-2.15822 -0.64321,-2.7525 l -10.53584,-7.51514 c -0.64127,-0.45753 -1.44792,-0.81078 -2.11895,0.0637 -0.67103,0.87449 -0.10636,1.5743 0.48687,2.06322 l 9.98594,8.23179 c 0.78955,0.65084 1.94415,1.05709 2.82519,-0.0911 z M 72.66272,93.736725 c 0.671026,-0.87449 0.121447,-1.56193 -0.486458,-2.06293 l -9.985949,-8.23177 c -0.789619,-0.65075 -1.944508,-1.05743 -2.82558,0.0908 -0.881071,1.14824 -0.189453,2.15869 0.643611,2.7528 l 10.535846,7.51514 c 0.625798,0.44652 1.447521,0.81044 2.11853,-0.064 z"
           style="opacity:1;vector-effect:none;fill:#8da1ac;fill-opacity:1;stroke:none;stroke-width:1.91309667;stroke-linecap:butt;stroke-linejoin:miter;stroke-miterlimit:4;stroke-dasharray:none;stroke-dashoffset:0;stroke-opacity:1;marker:none" />
        <path
           inkscape:connector-curvature="0"
           id="path1379"
           d="m 139.65306,153.94379 c 1.02341,-1.02341 0.4698,-2.11499 -0.27843,-2.81291 l -9.46479,-8.82607 c -0.57606,-0.5373 -1.32971,-0.99281 -2.10914,-0.2134 -0.77942,0.77944 -0.31094,1.54697 0.21341,2.10914 l 8.82605,9.46479 c 0.69784,0.74832 1.78949,1.30184 2.8129,0.27845 z M 75.832067,90.122795 c 0.779423,-0.77942 0.324268,-1.53272 -0.213037,-2.10877 l -8.826045,-9.46478 c -0.697924,-0.74824 -1.789854,-1.3022 -2.813261,-0.27879 -1.02341,1.0234 -0.469599,2.11549 0.27879,2.81326 l 9.464786,8.82604 c 0.562183,0.52435 1.329349,0.99246 2.108767,0.21304 z"
           style="opacity:1;vector-effect:none;fill:#8da1ac;fill-opacity:1;stroke:none;stroke-width:1.91309667;stroke-linecap:butt;stroke-linejoin:miter;stroke-miterlimit:4;stroke-dasharray:none;stroke-dashoffset:0;stroke-opacity:1;marker:none" />
        <path
           style="opacity:1;vector-effect:none;fill:#8da1ac;fill-opacity:1;stroke:none;stroke-width:1.91309667;stroke-linecap:butt;stroke-linejoin:miter;stroke-miterlimit:4;stroke-dasharray:none;stroke-dashoffset:0;stroke-opacity:1;marker:none"
           d="m 134.39069,158.55877 c 1.14823,-0.88108 0.74184,-2.03558 0.0911,-2.8252 l -8.23178,-9.98594 c -0.501,-0.60791 -1.18874,-1.1579 -2.06324,-0.48687 -0.8745,0.67102 -0.51019,1.49314 -0.0637,2.11893 l 7.51514,10.53585 c 0.59421,0.833 1.6043,1.52425 2.7525,0.64323 z M 79.445996,86.953455 c 0.874503,-0.67101 0.52156,-1.47727 0.06404,-2.11854 l -7.515135,-10.53583 c -0.594289,-0.83294 -1.604579,-1.52467 -2.752806,-0.64362 -1.148235,0.88108 -0.741705,2.03611 -0.09079,2.82559 l 8.231784,9.98595 c 0.488894,0.59326 1.188435,1.15747 2.062907,0.48645 z"
           id="path1381"
           inkscape:connector-curvature="0" />
        <path
           inkscape:connector-curvature="0"
           id="path1383"
           d="m 128.57098,162.4474 c 1.25341,-0.72366 1.0012,-1.92132 0.45909,-2.78913 l -6.85794,-10.97497 c -0.41737,-0.6681 -1.02744,-1.30316 -1.98203,-0.75201 -0.9546,0.55114 -0.70074,1.41377 -0.33976,2.09249 l 6.07565,11.42663 c 0.48038,0.90344 1.39158,1.72065 2.64499,0.99699 z M 83.442722,84.282975 c 0.954596,-0.55113 0.709891,-1.39657 0.340019,-2.09205 l -6.075648,-11.42663 c -0.480464,-0.90339 -1.391836,-1.72107 -2.645246,-0.99742 -1.253415,0.72366 -1.001161,1.92185 -0.458832,2.78956 l 6.857928,10.97497 c 0.407357,0.65197 1.027187,1.30271 1.981779,0.75157 z"
           style="opacity:1;vector-effect:none;fill:#8da1ac;fill-opacity:1;stroke:none;stroke-width:1.91309667;stroke-linecap:butt;stroke-linejoin:miter;stroke-miterlimit:4;stroke-dasharray:none;stroke-dashoffset:0;stroke-opacity:1;marker:none" />
        <path
           style="opacity:1;vector-effect:none;fill:#8da1ac;fill-opacity:1;stroke:none;stroke-width:1.91309667;stroke-linecap:butt;stroke-linejoin:miter;stroke-miterlimit:4;stroke-dasharray:none;stroke-dashoffset:0;stroke-opacity:1;marker:none"
           d="m 122.29348,165.54313 c 1.33713,-0.55386 1.2434,-1.77421 0.8192,-2.70534 l -5.36674,-11.77623 c -0.32658,-0.71686 -0.84854,-1.42612 -1.86691,-1.0043 -1.01837,0.42181 -0.87925,1.3102 -0.60996,2.03023 l 4.53219,12.1219 c 0.35835,0.95842 1.15513,1.88755 2.49224,1.33371 z M 87.753795,82.156995 c 1.018365,-0.42182 0.886135,-1.29195 0.610178,-2.02979 l -4.532199,-12.12189 c -0.358459,-0.95837 -1.155284,-1.88802 -2.492422,-1.33417 -1.337149,0.55387 -1.243416,1.77476 -0.819017,2.70581 l 5.366742,11.77622 c 0.318692,0.69959 0.84837,1.42562 1.866725,1.00381 z"
           id="path1385"
           inkscape:connector-curvature="0" />
        <path
           style="opacity:1;vector-effect:none;fill:#8da1ac;fill-opacity:1;stroke:none;stroke-width:1.91309667;stroke-linecap:butt;stroke-linejoin:miter;stroke-miterlimit:4;stroke-dasharray:none;stroke-dashoffset:0;stroke-opacity:1;marker:none"
           d="m 115.6656,167.793 c 1.398,-0.37459 1.46435,-1.59673 1.16532,-2.57527 l -3.78371,-12.37598 c -0.23023,-0.75335 -0.65516,-1.52467 -1.71987,-1.23938 -1.06472,0.28529 -1.04277,1.18423 -0.86975,1.93327 l 2.91119,12.60977 c 0.23018,0.99698 0.89882,2.02218 2.29682,1.64759 z M 92.305495,80.611905 c 1.06471,-0.28528 1.04718,-1.16523 0.86989,-1.93276 l -2.911188,-12.60977 c -0.230301,-0.99695 -0.898971,-2.02266 -2.29696,-1.64807 -1.398002,0.37459 -1.464431,1.59727 -1.165191,2.57575 l 3.783721,12.37597 c 0.224688,0.7352 0.655022,1.52418 1.719728,1.23888 z"
           id="path1387"
           inkscape:connector-curvature="0" />
        <path
           inkscape:connector-curvature="0"
           id="path1389"
           d="m 108.80076,169.15851 c 1.43493,-0.18892 1.66024,-1.39195 1.49149,-2.40115 l -2.13596,-12.76397 c -0.12992,-0.77696 -0.45051,-1.59714 -1.54338,-1.45326 -1.09285,0.14388 -1.18841,1.038 -1.11464,1.8032 l 1.24038,12.88189 c 0.0981,1.0185 0.62724,2.12219 2.06213,1.9333 z M 97.019915,79.674145 c 1.09284,-0.14386 1.19033,-1.01857 1.11478,-1.80266 l -1.24039,-12.88187 c -0.0982,-1.01849 -0.62727,-2.12269 -2.06219,-1.93379 -1.43494,0.18891 -1.6604,1.39246 -1.49143,2.40163 l 2.13597,12.76398 c 0.12675,0.75823 0.45047,1.59661 1.5433,1.45273 z"
           style="opacity:1;vector-effect:none;fill:#8da1ac;fill-opacity:1;stroke:none;stroke-width:1.91309667;stroke-linecap:butt;stroke-linejoin:miter;stroke-miterlimit:4;stroke-dasharray:none;stroke-dashoffset:0;stroke-opacity:1;marker:none" />
      </g>
      <path
         style="color:#000000;font-style:normal;font-variant:normal;font-weight:normal;font-stretch:normal;font-size:medium;line-height:normal;font-family:sans-serif;font-variant-ligatures:normal;font-variant-position:normal;font-variant-caps:normal;font-variant-numeric:normal;font-variant-alternates:normal;font-feature-settings:normal;text-indent:0;text-align:start;text-decoration:none;text-decoration-line:none;text-decoration-style:solid;text-decoration-color:#000000;letter-spacing:normal;word-spacing:normal;text-transform:none;writing-mode:lr-tb;direction:ltr;text-orientation:mixed;dominant-baseline:auto;baseline-shift:baseline;text-anchor:start;white-space:normal;shape-padding:0;clip-rule:nonzero;display:inline;overflow:visible;visibility:visible;opacity:1;isolation:auto;mix-blend-mode:normal;color-interpolation:sRGB;color-interpolation-filters:linearRGB;solid-color:#000000;solid-opacity:1;vector-effect:none;fill:#0d1f32;fill-opacity:1;fill-rule:nonzero;stroke:none;stroke-width:5;stroke-linecap:butt;stroke-linejoin:miter;stroke-miterlimit:4;stroke-dasharray:none;stroke-dashoffset:0;stroke-opacity:1;marker:none;color-rendering:auto;image-rendering:auto;shape-rendering:auto;text-rendering:auto;enable-background:accumulate"
         d="m 95.10643,531.1361 c -25.57709,0 -51.15476,4.43947 -75.55469,13.32031 l 11.97071,32.89063 c 41.07452,-14.94991 86.09344,-14.94991 127.16796,0 l 11.97071,-32.89063 C 146.26119,535.57557 120.68352,531.1361 95.10643,531.1361 Z"
         id="path1393"
         inkscape:connector-curvature="0" />
      <path
         id="path1395"
         d="m 136.91663,524.0295 33.74471,20.42665 -8.24033,22.64048 c 7.51416,2.73508 14.87578,5.92892 22.03896,9.57874 2.12613,-8.45722 -3.69611,-16.16144 -4.97178,-21.64207 4.48383,-2.93476 16.89147,-3.82672 20.86022,-9.54363 -20.05922,-10.22064 -41.43284,-17.4258 -63.43178,-21.46017 z"
         style="color:#000000;font-style:normal;font-variant:normal;font-weight:normal;font-stretch:normal;font-size:medium;line-height:normal;font-family:sans-serif;font-variant-ligatures:normal;font-variant-position:normal;font-variant-caps:normal;font-variant-numeric:normal;font-variant-alternates:normal;font-feature-settings:normal;text-indent:0;text-align:start;text-decoration:none;text-decoration-line:none;text-decoration-style:solid;text-decoration-color:#000000;letter-spacing:normal;word-spacing:normal;text-transform:none;writing-mode:lr-tb;direction:ltr;text-orientation:mixed;dominant-baseline:auto;baseline-shift:baseline;text-anchor:start;white-space:normal;shape-padding:0;clip-rule:nonzero;display:inline;overflow:visible;visibility:visible;opacity:1;isolation:auto;mix-blend-mode:normal;color-interpolation:sRGB;color-interpolation-filters:linearRGB;solid-color:#000000;solid-opacity:1;vector-effect:none;fill:#0d1f32;fill-opacity:1;fill-rule:nonzero;stroke:none;stroke-width:5;stroke-linecap:butt;stroke-linejoin:miter;stroke-miterlimit:4;stroke-dasharray:none;stroke-dashoffset:0;stroke-opacity:1;marker:none;color-rendering:auto;image-rendering:auto;shape-rendering:auto;text-rendering:auto;enable-background:accumulate"
         inkscape:connector-curvature="0" />
      <path
         id="path1397"
         d="m 53.29592,524.0295 -33.74471,20.42665 8.24032,22.64047 c -7.51415,2.73508 -14.87578,5.92892 -22.03896,9.57874 -2.12612,-8.45722 3.69612,-16.16144 4.97179,-21.64207 -4.48383,-2.93476 -16.89148,-3.82672 -20.86023,-9.54362 20.05923,-10.22065 41.43284,-17.42581 63.43179,-21.46017 z"
         style="color:#000000;font-style:normal;font-variant:normal;font-weight:normal;font-stretch:normal;font-size:medium;line-height:normal;font-family:sans-serif;font-variant-ligatures:normal;font-variant-position:normal;font-variant-caps:normal;font-variant-numeric:normal;font-variant-alternates:normal;font-feature-settings:normal;text-indent:0;text-align:start;text-decoration:none;text-decoration-line:none;text-decoration-style:solid;text-decoration-color:#000000;letter-spacing:normal;word-spacing:normal;text-transform:none;writing-mode:lr-tb;direction:ltr;text-orientation:mixed;dominant-baseline:auto;baseline-shift:baseline;text-anchor:start;white-space:normal;shape-padding:0;clip-rule:nonzero;display:inline;overflow:visible;visibility:visible;opacity:1;isolation:auto;mix-blend-mode:normal;color-interpolation:sRGB;color-interpolation-filters:linearRGB;solid-color:#000000;solid-opacity:1;vector-effect:none;fill:#0d1f32;fill-opacity:1;fill-rule:nonzero;stroke:none;stroke-width:5;stroke-linecap:butt;stroke-linejoin:miter;stroke-miterlimit:4;stroke-dasharray:none;stroke-dashoffset:0;stroke-opacity:1;marker:none;color-rendering:auto;image-rendering:auto;shape-rendering:auto;text-rendering:auto;enable-background:accumulate"
         inkscape:connector-curvature="0" />
      <path
         style="color:#000000;font-style:normal;font-variant:normal;font-weight:normal;font-stretch:normal;font-size:medium;line-height:normal;font-family:sans-serif;font-variant-ligatures:normal;font-variant-position:normal;font-variant-caps:normal;font-variant-numeric:normal;font-variant-alternates:normal;font-feature-settings:normal;text-indent:0;text-align:start;text-decoration:none;text-decoration-line:none;text-decoration-style:solid;text-decoration-color:#000000;letter-spacing:normal;word-spacing:normal;text-transform:none;writing-mode:lr-tb;direction:ltr;text-orientation:mixed;dominant-baseline:auto;baseline-shift:baseline;text-anchor:start;white-space:normal;shape-padding:0;clip-rule:nonzero;display:inline;overflow:visible;visibility:visible;opacity:1;isolation:auto;mix-blend-mode:normal;color-interpolation:sRGB;color-interpolation-filters:linearRGB;solid-color:#000000;solid-opacity:1;vector-effect:none;fill:#ffffff;fill-opacity:1;fill-rule:nonzero;stroke:none;stroke-width:5;stroke-linecap:butt;stroke-linejoin:miter;stroke-miterlimit:4;stroke-dasharray:none;stroke-dashoffset:0;stroke-opacity:1;marker:none;color-rendering:auto;image-rendering:auto;shape-rendering:auto;text-rendering:auto;enable-background:accumulate"
         d="m 52.84476,521.5697 c -22.23581,4.07778 -43.83965,11.36224 -64.11547,21.69324 l -2.55229,1.29915 1.63245,2.35334 c 2.64563,3.81098 7.25638,5.43068 11.54297,6.77529 3.29734,1.03434 6.18199,1.90958 8.18348,2.70888 -0.75309,2.09101 -1.78602,4.39275 -2.91972,7.47501 -1.4269,3.8794 -2.52719,8.48403 -1.28881,13.41004 l 0.76533,3.04271 2.79518,-1.4237 c 6.325,-3.22273 12.80851,-6.08298 19.41586,-8.58396 l 3.72432,10.23245 2.34973,-0.85524 c 40.52284,-14.74912 84.93411,-14.74912 125.45694,0 l 2.34972,0.85524 3.72484,-10.23297 c 6.60728,2.50094 13.09087,5.36072 19.41587,8.58345 l 2.79466,1.4242 0.76481,-3.04218 c 1.23838,-4.92601 0.13809,-9.53013 -1.28881,-13.40953 -1.06446,-2.89399 -2.30094,-5.49347 -3.07164,-7.53132 2.01724,-0.77732 5.16257,-1.65832 8.3354,-2.65358 4.2866,-1.34464 8.89683,-2.96381 11.54245,-6.77479 l 1.63349,-2.35283 -2.55229,-1.3007 c -20.27581,-10.331 -41.87966,-17.61336 -64.11547,-21.69117 l -1.90944,10.74251 c -13.33789,-2.44981 -26.84484,-3.67732 -40.35206,-3.67732 -13.50721,0 -27.01417,1.22751 -40.35206,3.67732 z m 98.2555,8.12302 c 15.41096,3.87985 30.4139,9.37332 44.77401,16.39898 -1.72535,1.06971 -3.99311,2.03788 -6.51124,2.82774 -4.03036,1.26431 -8.21482,2.03949 -11.24375,4.02198 l -1.46193,0.95705 0.39584,1.7017 c 0.76957,3.30634 2.57881,6.54378 3.85041,10.00096 0.88657,2.41035 1.47989,4.83129 1.48053,7.27241 -5.4886,-2.67282 -11.08422,-5.08521 -16.77107,-7.23574 l 8.10028,-22.25599 z m -112.0681,0.047 -22.53299,13.64051 3.34502,9.19065 4.76818,13.10256 c -5.69523,2.15368 -11.29071,4.58613 -16.78708,7.26363 -0.0104,-2.46258 0.5899,-4.90476 1.48414,-7.33596 1.2716,-3.45718 3.08032,-6.69412 3.8499,-10.00043 l 0.39635,-1.70276 -1.46296,-0.95702 c -3.02892,-1.98252 -7.2139,-2.7572 -11.24427,-4.02148 -2.48459,-0.77936 -4.72297,-1.73294 -6.44147,-2.78535 14.32037,-7.00252 29.25975,-12.51969 44.62518,-16.39435 z m 56.0741,3.89641 c 24.46295,0 48.90363,4.201 72.31289,12.41785 l -2.45721,6.751 -5.74538,15.7856 h 5.2e-4 l -2.05775,5.65494 c -40.19507,-14.02665 -83.91053,-14.02665 -124.1056,0 L 22.79389,546.054 c 23.40927,-8.21685 47.84944,-12.41785 72.31238,-12.41785 z"
         id="path1399"
         inkscape:connector-curvature="0"
         sodipodi:nodetypes="ccccccsccccccccccccccccccccscccccccccccccccccccccccccscccccccs" />
    </g>
  </g>
</svg>
