<?xml version="1.0" encoding="UTF-8"?>
<svg width="219.52mm" height="219.52mm" version="1.1" viewBox="0 0 219.52 219.52"  xmlnsSvg="http://www.w3.org/2000/svg" xmlns:cc="http://creativecommons.org/ns#" xmlns:dc="http://purl.org/dc/elements/1.1/" xmlns:rdf="http://www.w3.org/1999/02/22-rdf-syntax-ns#" xmlns:xlink="http://www.w3.org/1999/xlink">
<title>Medal Logo</title>
<defs>
<clipPath id="b">
<path d="m101.82 28.349a87.758 87.758 0 0 0-87.758 87.758 87.758 87.758 0 0 0 5.873 31.526c12.872-4.8 26.131-8.4572 39.623-10.932l0.4377 2.4624c0.0045-7.9e-4 0.0089-2e-3 0.01344-3e-3l-0.01241 8e-3 1.4707 8.276c13.338-2.4498 26.845-3.6773 40.352-3.6773s27.014 1.2275 40.352 3.6773l1.4712-8.276-0.0129-8e-3c5e-3 7.9e-4 9e-3 2e-3 0.0134 3e-3l0.4377-2.4613c13.465 2.4694 26.699 6.116 39.546 10.901a87.758 87.758 0 0 0 5.95-31.497 87.758 87.758 0 0 0-87.757-87.758zm0 155.42c-15.881 0-31.762 2.0634-47.237 6.1888a87.758 87.758 0 0 0 47.237 13.909 87.758 87.758 0 0 0 47.356-13.878c-15.512-4.1465-31.434-6.2198-47.356-6.2198z" fill="#f00" opacity=".2"/>
</clipPath>
<clipPath id="a">
<path d="m60.006 139.16c-0.0045 7.9e-4 -0.0089 2e-3 -0.01344 3e-3l0.0011 5e-3zm83.621 0 0.0129 8e-3 5.3e-4 -5e-3c-5e-3 -7.9e-4 -9e-3 -2e-3 -0.0134-3e-3zm14.184 5.6632 22.613 13.689-8.1003 22.256c5.6868 2.1505 11.282 4.5629 16.771 7.2357-5.3e-4 -2.4411-0.59396-4.8621-1.4805-7.2724-1.2716-3.4572-3.0808-6.6946-3.8504-10.001l-0.39584-1.7017 1.4619-0.95705c3.0289-1.9825 7.2134-2.7577 11.244-4.022 2.5181-0.78986 4.7859-1.758 6.5112-2.8277-14.36-7.0257-29.363-12.519-44.774-16.399zm-112.07 0.047c-15.365 3.8746-30.305 9.3918-44.625 16.394 1.7185 1.0524 3.9569 2.006 6.4415 2.7854 4.0304 1.2643 8.2154 2.0389 11.244 4.0215l1.463 0.95705-0.39636 1.7027c-0.76958 3.3063-2.5783 6.5432-3.8499 10-0.89424 2.4312-1.4945 4.8734-1.4841 7.336 5.4964-2.6775 11.092-5.11 16.787-7.2636l-4.7682-13.103-3.345-9.1906zm56.074 3.8964c-24.463 0-48.903 4.201-72.312 12.418l10.26 28.192c40.195-14.027 83.911-14.027 124.11 0l2.0578-5.655h-5.3e-4l5.7454-15.786 2.4572-6.751c-23.409-8.2168-47.85-12.418-72.313-12.418z" color="#000000" color-rendering="auto" dominant-baseline="auto" fill="#f00" image-rendering="auto" opacity=".2" shape-rendering="auto" solid-color="#000000" style="font-feature-settings:normal;font-variant-alternates:normal;font-variant-caps:normal;font-variant-ligatures:normal;font-variant-numeric:normal;font-variant-position:normal;isolation:auto;mix-blend-mode:normal;shape-padding:0;text-decoration-color:#000000;text-decoration-line:none;text-decoration-style:solid;text-indent:0;text-orientation:mixed;text-transform:none;white-space:normal"/>
</clipPath>
</defs>
<metadata>
<rdf:RDF>
<cc:Work rdf:about="">
<dc:format>image/svg+xml</dc:format>
<dc:type rdf:resource="http://purl.org/dc/dcmitype/StillImage"/>
<dc:title>Medal Logo</dc:title>
<dc:date>2018-05-08</dc:date>
<dc:creator>
<cc:Agent>
<dc:title>m1981 (original by ilnanny)</dc:title>
</cc:Agent>
</dc:creator>
<dc:rights>
<cc:Agent>
<dc:title>Public domain</dc:title>
</cc:Agent>
</dc:rights>
<dc:publisher>
<cc:Agent>
<dc:title>Inkscape</dc:title>
</cc:Agent>
</dc:publisher>
<dc:description>A blank version of ilnanny's logo.</dc:description>
<dc:subject>
<rdf:Bag>
<rdf:li>logo</rdf:li>
<rdf:li>medal</rdf:li>
<rdf:li>award</rdf:li>
<rdf:li>win</rdf:li>
<rdf:li>prize</rdf:li>
<rdf:li>quality</rdf:li>
<rdf:li>approved</rdf:li>
<rdf:li>ribbon</rdf:li>
<rdf:li>vector</rdf:li>
</rdf:Bag>
</dc:subject>
</cc:Work>
</rdf:RDF>
</metadata>
<g transform="translate(20.556 -13.372)">
<g transform="translate(-12.649 7.0238)">
<g clip-path="url(#b)">
<path transform="scale(.26458)" d="m384.82 150.03c-36.06 0-46.638 28.566-80.934 39.709-34.295 11.143-59.645-5.7503-88.818 15.445s-20.941 50.524-42.137 79.697-51.632 30.406-62.775 64.701c-11.143 34.295 12.756 53.184 12.756 89.244s-23.899 54.949-12.756 89.244c11.143 34.295 41.58 35.528 62.775 64.701 21.196 29.173 12.963 58.502 42.137 79.697 29.173 21.196 54.523 4.3021 88.818 15.445s44.873 39.709 80.934 39.709c36.06 1e-5 46.638-28.566 80.934-39.709 34.295-11.143 59.643 5.7503 88.816-15.445 29.173-21.196 20.941-50.524 42.137-79.697 21.196-29.173 51.632-30.406 62.775-64.701s-12.756-53.184-12.756-89.244c0-36.06 23.899-54.949 12.756-89.244s-41.58-35.528-62.775-64.701c-21.196-29.173-12.963-58.502-42.137-79.697-29.173-21.196-54.521-4.3021-88.816-15.445-34.295-11.143-44.873-39.709-80.934-39.709zm0 51.361a237.44 237.44 0 0 1 237.44 237.44 237.44 237.44 0 0 1-237.44 237.44 237.44 237.44 0 0 1-237.44-237.44 237.44 237.44 0 0 1 237.44-237.44z" fill="#0d1f32"/>
<path d="m101.82 58.59c-31.749 0-57.518 25.769-57.518 57.518 0 31.749 25.769 57.518 57.518 57.518 31.749 0 57.518-25.769 57.518-57.518 0-31.749-25.769-57.518-57.518-57.518zm0 3c30.127 0 54.518 24.39 54.518 54.518 0 30.127-24.39 54.518-54.518 54.518-30.127 0-54.518-24.39-54.518-54.518 0-30.127 24.39-54.518 54.518-54.518z" color="#000000" color-rendering="auto" dominant-baseline="auto" fill="#8da1ac" image-rendering="auto" shape-rendering="auto" solid-color="#000000" style="font-feature-settings:normal;font-variant-alternates:normal;font-variant-caps:normal;font-variant-ligatures:normal;font-variant-numeric:normal;font-variant-position:normal;isolation:auto;mix-blend-mode:normal;shape-padding:0;text-decoration-color:#000000;text-decoration-line:none;text-decoration-style:solid;text-indent:0;text-orientation:mixed;text-transform:none;white-space:normal"/>
<circle cx="101.82" cy="116.11" r="35.975" fill="#8da1ac"/>
<g fill="#8da1ac">
<path d="m101.82 62.598c-1.4473 0-1.8277 1.1633-1.7921 2.1859l0.45165 12.934c0.0274 0.78727 0.23822 1.6423 1.3405 1.6423 1.1023 0 1.3137-0.874 1.3405-1.6423l0.45166-12.934c0.0357-1.0226-0.34482-2.1859-1.7921-2.1859zm0 90.257c-1.1023 0-1.3131 0.8545-1.3405 1.6418l-0.45165 12.934c-0.03558 1.0226 0.34483 2.1864 1.7921 2.1864 1.4473 0 1.8279-1.1638 1.7921-2.1864l-0.45166-12.934c-0.0267-0.7683-0.23821-1.6418-1.3405-1.6418z"/>
<path d="m101.82 62.598c-1.4473 0-1.8277 1.1633-1.7921 2.1859l0.45165 12.934c0.0274 0.78727 0.23822 1.6423 1.3405 1.6423 1.1023 0 1.3137-0.874 1.3405-1.6423l0.45166-12.934c0.0357-1.0226-0.34482-2.1859-1.7921-2.1859zm0 90.257c-1.1023 0-1.3131 0.8545-1.3405 1.6418l-0.45165 12.934c-0.03558 1.0226 0.34483 2.1864 1.7921 2.1864 1.4473 0 1.8279-1.1638 1.7921-2.1864l-0.45166-12.934c-0.0267-0.7683-0.23821-1.6418-1.3405-1.6418z"/>
<path d="m108.8 63.056c-1.4349-0.18891-1.9639 0.91481-2.0621 1.9333l-1.2404 12.882c-0.0756 0.78412 0.0218 1.6593 1.1147 1.8032 1.0928 0.14388 1.4166-0.69504 1.5434-1.4533l2.136-12.764c0.16887-1.0092-0.0566-2.2122-1.4915-2.4011zm-11.781 89.484c-1.0928-0.14388-1.4134 0.67579-1.5433 1.4528l-2.136 12.764c-0.16875 1.0092 0.0565 2.2127 1.4914 2.4016 1.4349 0.18891 1.9642-0.91528 2.0622-1.9338l1.2404-12.882c0.0738-0.76521-0.0219-1.6588-1.1147-1.8027z"/>
<path d="m115.67 64.421c-1.398-0.37459-2.0665 0.65064-2.2968 1.6476l-2.9112 12.61c-0.17729 0.76754-0.19495 1.648 0.86976 1.9333 1.0647 0.28529 1.4952-0.5042 1.7199-1.2394l3.7837-12.376c0.29915-0.97851 0.23269-2.2007-1.1653-2.5753zm-23.36 87.181c-1.0647-0.28529-1.4895 0.48553-1.7197 1.2389l-3.7837 12.376c-0.29903 0.97854-0.23281 2.2012 1.1652 2.5758 1.398 0.3746 2.0669-0.65106 2.297-1.6481l2.9112-12.61c0.17301-0.74904 0.19482-1.6475-0.86989-1.9328z"/>
<path d="m122.29 66.671c-1.3372-0.55386-2.1338 0.37534-2.4922 1.3337l-4.5322 12.122c-0.27597 0.73784-0.40841 1.6084 0.60998 2.0303 1.0184 0.42182 1.5482-0.30473 1.8669-1.0043l5.3667-11.776c0.42431-0.9311 0.51789-2.1515-0.8192-2.7054zm-34.54 83.386c-1.0184-0.42183-1.5401 0.28695-1.8667 1.0038l-5.3667 11.776c-0.4242 0.93114-0.51812 2.1519 0.81901 2.7058 1.3372 0.55386 2.1342-0.37572 2.4924-1.3342l4.5322-12.122c0.26934-0.72003 0.40818-1.608-0.61017-2.0298z"/>
<path d="m128.57 69.767c-1.2534-0.72366-2.1645 0.0936-2.645 0.99698l-6.0756 11.427c-0.36991 0.69549-0.61484 1.5414 0.33976 2.0925 0.9546 0.55114 1.5747-0.10003 1.982-0.75201l6.8579-10.975c0.54221-0.86774 0.79433-2.0655-0.45908-2.7891zm-45.128 78.164c-0.95459-0.55114-1.5644 0.0835-1.9818 0.75156l-6.8579 10.975c-0.5421 0.8678-0.79457 2.0659 0.45883 2.7896 1.2534 0.72366 2.165-0.0939 2.6452-0.99742l6.0756-11.427c0.36098-0.67874 0.61458-1.5409-0.34001-2.092z"/>
<path d="m134.39 73.656c-1.1482-0.88106-2.1582-0.18971-2.7525 0.64322l-7.5151 10.536c-0.45753 0.64127-0.81078 1.4479 0.0637 2.119 0.87449 0.67103 1.5743 0.10636 2.0632-0.48687l8.2318-9.986c0.65084-0.78955 1.0571-1.9441-0.0911-2.8252zm-54.945 71.605c-0.87449-0.67102-1.5619-0.12144-2.0629 0.48646l-8.2318 9.986c-0.65074 0.78962-1.0574 1.9445 0.09079 2.8256 1.1482 0.88107 2.1587 0.18945 2.7528-0.64361l7.5151-10.536c0.44652-0.62579 0.81044-1.4475-0.06404-2.1185z"/>
<path d="m139.65 78.27c-1.0234-1.0234-2.115-0.46979-2.8129 0.27844l-8.8261 9.4648c-0.53731 0.57607-0.99282 1.3297-0.2134 2.1092 0.77943 0.77942 1.547 0.31094 2.1091-0.21341l9.4648-8.826c0.74832-0.69784 1.3018-1.7895 0.27845-2.8129zm-63.821 63.821c-0.77942-0.77943-1.5327-0.32427-2.1088 0.21303l-9.4648 8.826c-0.74824 0.69792-1.3022 1.7899-0.27879 2.8133 1.0234 1.0234 2.1155 0.4696 2.8133-0.27879l8.826-9.4648c0.52435-0.56218 0.99246-1.3294 0.21303-2.1088z"/>
<path d="m144.27 83.533c-0.88108-1.1482-2.0356-0.74184-2.8252-0.0911l-9.9859 8.2318c-0.60791 0.501-1.1579 1.1887-0.48687 2.0632 0.67103 0.87449 1.4931 0.51019 2.1189 0.0637l10.536-7.5151c0.83301-0.5942 1.5242-1.6043 0.64323-2.7525zm-71.605 54.945c-0.67101-0.8745-1.4773-0.52157-2.1185-0.0641l-10.536 7.5152c-0.83294 0.59429-1.5247 1.6046-0.64362 2.7528 0.88108 1.1482 2.0361 0.74171 2.8256 0.0908l9.9859-8.2318c0.59327-0.48889 1.1575-1.1884 0.48646-2.0629z"/>
<path d="m148.16 89.353c-0.72366-1.2534-1.9213-1.0012-2.7891-0.45908l-10.975 6.8579c-0.6681 0.41736-1.3032 1.0274-0.75201 1.982 0.55114 0.9546 1.4138 0.70073 2.0925 0.33976l11.427-6.0756c0.90344-0.48038 1.7206-1.3916 0.99699-2.645zm-78.164 45.128c-0.55114-0.95459-1.3966-0.70991-2.0921-0.34001l-11.427 6.0756c-0.90338 0.48049-1.7211 1.3918-0.99742 2.6452 0.72366 1.2534 1.9219 1.0011 2.7896 0.45883l10.975-6.8579c0.65199-0.40731 1.3027-1.0272 0.75157-1.9818z"/>
<path d="m151.25 95.63c-0.55386-1.3371-1.7742-1.2434-2.7053-0.81921l-11.776 5.3667c-0.71687 0.32659-1.4261 0.84854-1.0043 1.8669 0.42182 1.0184 1.3102 0.87926 2.0302 0.60997l12.122-4.5322c0.95842-0.35835 1.8875-1.1551 1.3337-2.4922zm-83.386 34.54c-0.42182-1.0184-1.2919-0.88614-2.0298-0.61018l-12.122 4.5322c-0.95837 0.35846-1.888 1.1553-1.3342 2.4924 0.55387 1.3372 1.7748 1.2434 2.7058 0.81902l11.776-5.3667c0.69959-0.3187 1.4256-0.84837 1.0038-1.8667z"/>
<path d="m153.5 102.26c-0.3746-1.398-1.5967-1.4644-2.5753-1.1653l-12.376 3.7837c-0.75335 0.23023-1.5247 0.65516-1.2394 1.7199 0.2853 1.0647 1.1842 1.0428 1.9333 0.86975l12.61-2.9112c0.99699-0.23018 2.0222-0.89882 1.6476-2.2968zm-87.181 23.36c-0.28529-1.0647-1.1652-1.0472-1.9328-0.86989l-12.61 2.9112c-0.99696 0.2303-2.0227 0.89896-1.6481 2.297 0.37459 1.398 1.5973 1.4644 2.5758 1.1652l12.376-3.7837c0.73519-0.22469 1.5242-0.65502 1.2389-1.7197z"/>
<path d="m154.87 109.12c-0.18892-1.4349-1.3919-1.6602-2.4011-1.4915l-12.764 2.136c-0.77697 0.12992-1.5971 0.45052-1.4533 1.5434 0.14387 1.0928 1.038 1.1884 1.8032 1.1146l12.882-1.2404c1.0185-0.0981 2.1222-0.62724 1.9333-2.0621zm-89.484 11.781c-0.14387-1.0928-1.0186-1.1903-1.8027-1.1147l-12.882 1.2404c-1.0185 0.0982-2.1227 0.62727-1.9338 2.0622 0.18892 1.4349 1.3925 1.6604 2.4016 1.4914l12.764-2.136c0.75823-0.12676 1.5966-0.45048 1.4527-1.5433z"/>
<path d="m155.33 116.11c0-1.4473-1.1633-1.8277-2.1859-1.7921l-12.934 0.45166c-0.78727 0.0274-1.6423 0.23821-1.6423 1.3405 0 1.1023 0.87399 1.3137 1.6423 1.3405l12.934 0.45165c1.0226 0.0357 2.1859-0.34482 2.1859-1.7921zm-90.257 0c4e-6 -1.1023-0.85452-1.3131-1.6418-1.3405l-12.934-0.45165c-1.0226-0.0356-2.1864 0.34483-2.1864 1.7921 0 1.4473 1.1638 1.828 2.1864 1.7921l12.934-0.45165c0.7683-0.0268 1.6418-0.23822 1.6418-1.3405z"/>
<path d="m154.87 123.09c0.18891-1.4349-0.91481-1.9639-1.9333-2.0621l-12.882-1.2404c-0.78412-0.0756-1.6593 0.0218-1.8032 1.1146-0.14389 1.0928 0.69504 1.4166 1.4532 1.5434l12.764 2.136c1.0092 0.16887 2.2122-0.0566 2.4011-1.4915zm-89.484-11.781c0.14388-1.0928-0.67579-1.4134-1.4528-1.5433l-12.764-2.136c-1.0092-0.16875-2.2127 0.0565-2.4016 1.4914-0.18891 1.4349 0.91528 1.9642 1.9338 2.0622l12.882 1.2404c0.76521 0.0738 1.6588-0.0219 1.8027-1.1147z"/>
<path d="m153.5 129.96c0.37459-1.398-0.65064-2.0665-1.6476-2.2968l-12.61-2.9112c-0.76754-0.17729-1.648-0.19495-1.9333 0.86976-0.28529 1.0647 0.50419 1.4952 1.2394 1.7199l12.376 3.7837c0.9785 0.29915 2.2007 0.23269 2.5753-1.1653zm-87.181-23.36c0.2853-1.0647-0.48553-1.4895-1.2389-1.7197l-12.376-3.7837c-0.97854-0.29903-2.2012-0.2328-2.5758 1.1652-0.3746 1.398 0.65106 2.0669 1.6481 2.297l12.61 2.9112c0.74904 0.17301 1.6475 0.19482 1.9328-0.86989z"/>
<path d="m151.25 136.58c0.55386-1.3372-0.37534-2.1338-1.3337-2.4922l-12.122-4.5322c-0.73783-0.27597-1.6084-0.40842-2.0302 0.60998-0.42182 1.0184 0.30473 1.5482 1.0043 1.8669l11.776 5.3667c0.93109 0.42431 2.1515 0.51789 2.7054-0.8192zm-83.386-34.54c0.42183-1.0184-0.28694-1.5401-1.0038-1.8668l-11.776-5.3667c-0.93114-0.4242-2.1519-0.51812-2.7058 0.81901-0.55387 1.3372 0.37572 2.1342 1.3342 2.4924l12.122 4.5322c0.72002 0.26934 1.6079 0.40818 2.0298-0.61017z"/>
<path d="m148.16 142.86c0.72366-1.2534-0.0936-2.1645-0.99699-2.645l-11.427-6.0756c-0.69549-0.36991-1.5414-0.61484-2.0925 0.33975-0.55114 0.95461 0.10003 1.5747 0.75201 1.982l10.975 6.8579c0.86774 0.54221 2.0655 0.79433 2.7891-0.45908zm-78.164-45.128c0.55113-0.95459-0.08348-1.5644-0.75157-1.9818l-10.975-6.8579c-0.8678-0.5421-2.0659-0.79457-2.7896 0.45884-0.72366 1.2534 0.09393 2.165 0.99742 2.6452l11.427 6.0756c0.67874 0.36099 1.5409 0.61459 2.0921-0.34001z"/>
<path d="m144.27 148.68c0.88107-1.1482 0.18972-2.1582-0.64321-2.7525l-10.536-7.5151c-0.64127-0.45753-1.4479-0.81078-2.119 0.0637-0.67103 0.87449-0.10636 1.5743 0.48687 2.0632l9.9859 8.2318c0.78955 0.65084 1.9442 1.0571 2.8252-0.0911zm-71.605-54.945c0.67103-0.87449 0.12145-1.5619-0.48646-2.0629l-9.9859-8.2318c-0.78962-0.65075-1.9445-1.0574-2.8256 0.0908-0.88107 1.1482-0.18945 2.1587 0.64361 2.7528l10.536 7.5151c0.6258 0.44652 1.4475 0.81044 2.1185-0.064z"/>
<path d="m139.65 153.94c1.0234-1.0234 0.4698-2.115-0.27843-2.8129l-9.4648-8.8261c-0.57606-0.5373-1.3297-0.99281-2.1091-0.2134-0.77942 0.77944-0.31094 1.547 0.21341 2.1091l8.826 9.4648c0.69784 0.74832 1.7895 1.3018 2.8129 0.27845zm-63.821-63.821c0.77942-0.77942 0.32427-1.5327-0.21304-2.1088l-8.826-9.4648c-0.69792-0.74824-1.7899-1.3022-2.8133-0.27879-1.0234 1.0234-0.4696 2.1155 0.27879 2.8133l9.4648 8.826c0.56218 0.52435 1.3293 0.99246 2.1088 0.21304z"/>
<path d="m134.39 158.56c1.1482-0.88108 0.74184-2.0356 0.0911-2.8252l-8.2318-9.9859c-0.501-0.60791-1.1887-1.1579-2.0632-0.48687-0.8745 0.67102-0.51019 1.4931-0.0637 2.1189l7.5151 10.536c0.59421 0.833 1.6043 1.5242 2.7525 0.64323zm-54.945-71.605c0.8745-0.67101 0.52156-1.4773 0.06404-2.1185l-7.5151-10.536c-0.59429-0.83294-1.6046-1.5247-2.7528-0.64362-1.1482 0.88108-0.7417 2.0361-0.09079 2.8256l8.2318 9.986c0.48889 0.59326 1.1884 1.1575 2.0629 0.48645z"/>
<path d="m128.57 162.45c1.2534-0.72366 1.0012-1.9213 0.45909-2.7891l-6.8579-10.975c-0.41737-0.6681-1.0274-1.3032-1.982-0.75201-0.9546 0.55114-0.70074 1.4138-0.33976 2.0925l6.0756 11.427c0.48038 0.90344 1.3916 1.7206 2.645 0.99699zm-45.128-78.164c0.9546-0.55113 0.70989-1.3966 0.34002-2.092l-6.0756-11.427c-0.48046-0.90339-1.3918-1.7211-2.6452-0.99742-1.2534 0.72366-1.0012 1.9218-0.45883 2.7896l6.8579 10.975c0.40736 0.65197 1.0272 1.3027 1.9818 0.75157z"/>
<path d="m122.29 165.54c1.3371-0.55386 1.2434-1.7742 0.8192-2.7053l-5.3667-11.776c-0.32658-0.71686-0.84854-1.4261-1.8669-1.0043-1.0184 0.42181-0.87925 1.3102-0.60996 2.0302l4.5322 12.122c0.35835 0.95842 1.1551 1.8876 2.4922 1.3337zm-34.54-83.386c1.0184-0.42182 0.88614-1.292 0.61018-2.0298l-4.5322-12.122c-0.35846-0.95837-1.1553-1.888-2.4924-1.3342-1.3371 0.55387-1.2434 1.7748-0.81902 2.7058l5.3667 11.776c0.31869 0.69959 0.84837 1.4256 1.8667 1.0038z"/>
<path d="m115.67 167.79c1.398-0.37459 1.4644-1.5967 1.1653-2.5753l-3.7837-12.376c-0.23023-0.75335-0.65516-1.5247-1.7199-1.2394-1.0647 0.28529-1.0428 1.1842-0.86975 1.9333l2.9112 12.61c0.23018 0.99698 0.89882 2.0222 2.2968 1.6476zm-23.36-87.181c1.0647-0.28528 1.0472-1.1652 0.86989-1.9328l-2.9112-12.61c-0.2303-0.99695-0.89897-2.0227-2.297-1.6481-1.398 0.37459-1.4644 1.5973-1.1652 2.5758l3.7837 12.376c0.22469 0.7352 0.65502 1.5242 1.7197 1.2389z"/>
<path d="m108.8 169.16c1.4349-0.18892 1.6602-1.392 1.4915-2.4012l-2.136-12.764c-0.12992-0.77696-0.45051-1.5971-1.5434-1.4533-1.0928 0.14388-1.1884 1.038-1.1146 1.8032l1.2404 12.882c0.0981 1.0185 0.62724 2.1222 2.0621 1.9333zm-11.781-89.484c1.0928-0.14386 1.1903-1.0186 1.1148-1.8027l-1.2404-12.882c-0.0982-1.0185-0.62727-2.1227-2.0622-1.9338-1.4349 0.18891-1.6604 1.3925-1.4914 2.4016l2.136 12.764c0.12675 0.75823 0.45047 1.5966 1.5433 1.4527z"/>
</g>
</g>
<g clip-path="url(#a)" fill="#0d1f32" shape-rendering="auto">
<path d="m101.82 146.27c-25.577 0-51.155 4.4395-75.555 13.32l11.971 32.891c41.075-14.95 86.093-14.95 127.17 0l11.971-32.891c-24.4-8.8808-49.978-13.32-75.555-13.32z" color="#000000" color-rendering="auto" dominant-baseline="auto" image-rendering="auto" solid-color="#000000" style="font-feature-settings:normal;font-variant-alternates:normal;font-variant-caps:normal;font-variant-ligatures:normal;font-variant-numeric:normal;font-variant-position:normal;isolation:auto;mix-blend-mode:normal;shape-padding:0;text-decoration-color:#000000;text-decoration-line:none;text-decoration-style:solid;text-indent:0;text-orientation:mixed;text-transform:none;white-space:normal"/>
<path d="m143.63 139.16 33.745 20.427-8.2403 22.64c7.5142 2.7351 14.876 5.9289 22.039 9.5787 2.1261-8.4572-3.6961-16.161-4.9718-21.642 4.4838-2.9348 16.891-3.8267 20.86-9.5436-20.059-10.221-41.433-17.426-63.432-21.46z" color="#000000" color-rendering="auto" dominant-baseline="auto" image-rendering="auto" solid-color="#000000" style="font-feature-settings:normal;font-variant-alternates:normal;font-variant-caps:normal;font-variant-ligatures:normal;font-variant-numeric:normal;font-variant-position:normal;isolation:auto;mix-blend-mode:normal;shape-padding:0;text-decoration-color:#000000;text-decoration-line:none;text-decoration-style:solid;text-indent:0;text-orientation:mixed;text-transform:none;white-space:normal"/>
<path d="m60.006 139.16-33.745 20.427 8.2403 22.64c-7.5142 2.7351-14.876 5.9289-22.039 9.5787-2.1261-8.4572 3.6961-16.161 4.9718-21.642-4.4838-2.9348-16.891-3.8267-20.86-9.5436 20.059-10.221 41.433-17.426 63.432-21.46z" color="#000000" color-rendering="auto" dominant-baseline="auto" image-rendering="auto" solid-color="#000000" style="font-feature-settings:normal;font-variant-alternates:normal;font-variant-caps:normal;font-variant-ligatures:normal;font-variant-numeric:normal;font-variant-position:normal;isolation:auto;mix-blend-mode:normal;shape-padding:0;text-decoration-color:#000000;text-decoration-line:none;text-decoration-style:solid;text-indent:0;text-orientation:mixed;text-transform:none;white-space:normal"/>
</g>
</g>
<g transform="translate(-5.9039)">
<path d="m95.106 424.56c9.5409 0 12.34 7.558 21.414 10.506 9.074 2.9483 15.781-1.5212 23.5 4.0869s5.5406 13.368 11.149 21.086c5.608 7.7188 13.661 8.0451 16.609 17.119 2.9483 9.074-3.3749 14.071-3.3749 23.612s6.3232 14.538 3.3749 23.612c-2.9483 9.074-11.001 9.4003-16.609 17.119s-3.4298 15.478-11.149 21.086c-7.7188 5.608-14.426 1.1386-23.5 4.0869-9.0739 2.9483-11.873 10.506-21.414 10.506-9.5409 0-12.34-7.558-21.414-10.506-9.0739-2.9483-15.781 1.5212-23.5-4.0869-7.7188-5.608-5.5406-13.368-11.149-21.086-5.608-7.7188-13.661-8.0451-16.609-17.119-2.9483-9.074 3.3749-14.071 3.3749-23.612 0-9.5409-6.3232-14.538-3.3749-23.612 2.9483-9.074 11.001-9.4003 16.609-17.119 5.608-7.7188 3.4298-15.478 11.149-21.086 7.7188-5.608 14.426-1.1386 23.5-4.0869 9.0739-2.9483 11.873-10.506 21.414-10.506z" fill="#0d1f32"/>
<circle cx="95.106" cy="500.98" r="62.822" fill="#fff"/>
<circle cx="95.106" cy="500.98" r="56.018" fill="none" stroke="#8da1ac" stroke-width="3"/>
<circle cx="95.106" cy="500.98" r="35.975" fill="#8da1ac"/>
<g transform="translate(-6.7101 384.87)" fill="#8da1ac">
<path d="m101.82 62.598c-1.4473 0-1.8277 1.1633-1.7921 2.1859l0.45165 12.934c0.0274 0.78727 0.23822 1.6423 1.3405 1.6423 1.1023 0 1.3137-0.874 1.3405-1.6423l0.45166-12.934c0.0357-1.0226-0.34482-2.1859-1.7921-2.1859zm0 90.257c-1.1023 0-1.3131 0.8545-1.3405 1.6418l-0.45165 12.934c-0.03558 1.0226 0.34483 2.1864 1.7921 2.1864 1.4473 0 1.8279-1.1638 1.7921-2.1864l-0.45166-12.934c-0.0267-0.7683-0.23821-1.6418-1.3405-1.6418z"/>
<path d="m101.82 62.598c-1.4473 0-1.8277 1.1633-1.7921 2.1859l0.45165 12.934c0.0274 0.78727 0.23822 1.6423 1.3405 1.6423 1.1023 0 1.3137-0.874 1.3405-1.6423l0.45166-12.934c0.0357-1.0226-0.34482-2.1859-1.7921-2.1859zm0 90.257c-1.1023 0-1.3131 0.8545-1.3405 1.6418l-0.45165 12.934c-0.03558 1.0226 0.34483 2.1864 1.7921 2.1864 1.4473 0 1.8279-1.1638 1.7921-2.1864l-0.45166-12.934c-0.0267-0.7683-0.23821-1.6418-1.3405-1.6418z"/>
<path d="m108.8 63.056c-1.4349-0.18891-1.9639 0.91481-2.0621 1.9333l-1.2404 12.882c-0.0756 0.78412 0.0218 1.6593 1.1147 1.8032 1.0928 0.14388 1.4166-0.69504 1.5434-1.4533l2.136-12.764c0.16887-1.0092-0.0566-2.2122-1.4915-2.4011zm-11.781 89.484c-1.0928-0.14388-1.4134 0.67579-1.5433 1.4528l-2.136 12.764c-0.16875 1.0092 0.0565 2.2127 1.4914 2.4016 1.4349 0.18891 1.9642-0.91528 2.0622-1.9338l1.2404-12.882c0.0738-0.76521-0.0219-1.6588-1.1147-1.8027z"/>
<path d="m115.67 64.421c-1.398-0.37459-2.0665 0.65064-2.2968 1.6476l-2.9112 12.61c-0.17729 0.76754-0.19495 1.648 0.86976 1.9333 1.0647 0.28529 1.4952-0.5042 1.7199-1.2394l3.7837-12.376c0.29915-0.97851 0.23269-2.2007-1.1653-2.5753zm-23.36 87.181c-1.0647-0.28529-1.4895 0.48553-1.7197 1.2389l-3.7837 12.376c-0.29903 0.97854-0.23281 2.2012 1.1652 2.5758 1.398 0.3746 2.0669-0.65106 2.297-1.6481l2.9112-12.61c0.17301-0.74904 0.19482-1.6475-0.86989-1.9328z"/>
<path d="m122.29 66.671c-1.3372-0.55386-2.1338 0.37534-2.4922 1.3337l-4.5322 12.122c-0.27597 0.73784-0.40841 1.6084 0.60998 2.0303 1.0184 0.42182 1.5482-0.30473 1.8669-1.0043l5.3667-11.776c0.42431-0.9311 0.51789-2.1515-0.8192-2.7054zm-34.54 83.386c-1.0184-0.42183-1.5401 0.28695-1.8667 1.0038l-5.3667 11.776c-0.4242 0.93114-0.51812 2.1519 0.81901 2.7058 1.3372 0.55386 2.1342-0.37572 2.4924-1.3342l4.5322-12.122c0.26934-0.72003 0.40818-1.608-0.61017-2.0298z"/>
<path d="m128.57 69.767c-1.2534-0.72366-2.1645 0.0936-2.645 0.99698l-6.0756 11.427c-0.36991 0.69549-0.61484 1.5414 0.33976 2.0925 0.9546 0.55114 1.5747-0.10003 1.982-0.75201l6.8579-10.975c0.54221-0.86774 0.79433-2.0655-0.45908-2.7891zm-45.128 78.164c-0.95459-0.55114-1.5644 0.0835-1.9818 0.75156l-6.8579 10.975c-0.5421 0.8678-0.79457 2.0659 0.45883 2.7896 1.2534 0.72366 2.165-0.0939 2.6452-0.99742l6.0756-11.427c0.36098-0.67874 0.61458-1.5409-0.34001-2.092z"/>
<path d="m134.39 73.656c-1.1482-0.88106-2.1582-0.18971-2.7525 0.64322l-7.5151 10.536c-0.45753 0.64127-0.81078 1.4479 0.0637 2.119 0.87449 0.67103 1.5743 0.10636 2.0632-0.48687l8.2318-9.986c0.65084-0.78955 1.0571-1.9441-0.0911-2.8252zm-54.945 71.605c-0.87449-0.67102-1.5619-0.12144-2.0629 0.48646l-8.2318 9.986c-0.65074 0.78962-1.0574 1.9445 0.09079 2.8256 1.1482 0.88107 2.1587 0.18945 2.7528-0.64361l7.5151-10.536c0.44652-0.62579 0.81044-1.4475-0.06404-2.1185z"/>
<path d="m139.65 78.27c-1.0234-1.0234-2.115-0.46979-2.8129 0.27844l-8.8261 9.4648c-0.53731 0.57607-0.99282 1.3297-0.2134 2.1092 0.77943 0.77942 1.547 0.31094 2.1091-0.21341l9.4648-8.826c0.74832-0.69784 1.3018-1.7895 0.27845-2.8129zm-63.821 63.821c-0.77942-0.77943-1.5327-0.32427-2.1088 0.21303l-9.4648 8.826c-0.74824 0.69792-1.3022 1.7899-0.27879 2.8133 1.0234 1.0234 2.1155 0.4696 2.8133-0.27879l8.826-9.4648c0.52435-0.56218 0.99246-1.3294 0.21303-2.1088z"/>
<path d="m144.27 83.533c-0.88108-1.1482-2.0356-0.74184-2.8252-0.0911l-9.9859 8.2318c-0.60791 0.501-1.1579 1.1887-0.48687 2.0632 0.67103 0.87449 1.4931 0.51019 2.1189 0.0637l10.536-7.5151c0.83301-0.5942 1.5242-1.6043 0.64323-2.7525zm-71.605 54.945c-0.67101-0.8745-1.4773-0.52157-2.1185-0.0641l-10.536 7.5152c-0.83294 0.59429-1.5247 1.6046-0.64362 2.7528 0.88108 1.1482 2.0361 0.74171 2.8256 0.0908l9.9859-8.2318c0.59327-0.48889 1.1575-1.1884 0.48646-2.0629z"/>
<path d="m148.16 89.353c-0.72366-1.2534-1.9213-1.0012-2.7891-0.45908l-10.975 6.8579c-0.6681 0.41736-1.3032 1.0274-0.75201 1.982 0.55114 0.9546 1.4138 0.70073 2.0925 0.33976l11.427-6.0756c0.90344-0.48038 1.7206-1.3916 0.99699-2.645zm-78.164 45.128c-0.55114-0.95459-1.3966-0.70991-2.0921-0.34001l-11.427 6.0756c-0.90338 0.48049-1.7211 1.3918-0.99742 2.6452 0.72366 1.2534 1.9219 1.0011 2.7896 0.45883l10.975-6.8579c0.65199-0.40731 1.3027-1.0272 0.75157-1.9818z"/>
<path d="m151.25 95.63c-0.55386-1.3371-1.7742-1.2434-2.7053-0.81921l-11.776 5.3667c-0.71687 0.32659-1.4261 0.84854-1.0043 1.8669 0.42182 1.0184 1.3102 0.87926 2.0302 0.60997l12.122-4.5322c0.95842-0.35835 1.8875-1.1551 1.3337-2.4922zm-83.386 34.54c-0.42182-1.0184-1.2919-0.88614-2.0298-0.61018l-12.122 4.5322c-0.95837 0.35846-1.888 1.1553-1.3342 2.4924 0.55387 1.3372 1.7748 1.2434 2.7058 0.81902l11.776-5.3667c0.69959-0.3187 1.4256-0.84837 1.0038-1.8667z"/>
<path d="m153.5 102.26c-0.3746-1.398-1.5967-1.4644-2.5753-1.1653l-12.376 3.7837c-0.75335 0.23023-1.5247 0.65516-1.2394 1.7199 0.2853 1.0647 1.1842 1.0428 1.9333 0.86975l12.61-2.9112c0.99699-0.23018 2.0222-0.89882 1.6476-2.2968zm-87.181 23.36c-0.28529-1.0647-1.1652-1.0472-1.9328-0.86989l-12.61 2.9112c-0.99696 0.2303-2.0227 0.89896-1.6481 2.297 0.37459 1.398 1.5973 1.4644 2.5758 1.1652l12.376-3.7837c0.73519-0.22469 1.5242-0.65502 1.2389-1.7197z"/>
<path d="m154.87 109.12c-0.18892-1.4349-1.3919-1.6602-2.4011-1.4915l-12.764 2.136c-0.77697 0.12992-1.5971 0.45052-1.4533 1.5434 0.14387 1.0928 1.038 1.1884 1.8032 1.1146l12.882-1.2404c1.0185-0.0981 2.1222-0.62724 1.9333-2.0621zm-89.484 11.781c-0.14387-1.0928-1.0186-1.1903-1.8027-1.1147l-12.882 1.2404c-1.0185 0.0982-2.1227 0.62727-1.9338 2.0622 0.18892 1.4349 1.3925 1.6604 2.4016 1.4914l12.764-2.136c0.75823-0.12676 1.5966-0.45048 1.4527-1.5433z"/>
<path d="m155.33 116.11c0-1.4473-1.1633-1.8277-2.1859-1.7921l-12.934 0.45166c-0.78727 0.0274-1.6423 0.23821-1.6423 1.3405 0 1.1023 0.87399 1.3137 1.6423 1.3405l12.934 0.45165c1.0226 0.0357 2.1859-0.34482 2.1859-1.7921zm-90.257 0c4e-6 -1.1023-0.85452-1.3131-1.6418-1.3405l-12.934-0.45165c-1.0226-0.0356-2.1864 0.34483-2.1864 1.7921 0 1.4473 1.1638 1.828 2.1864 1.7921l12.934-0.45165c0.7683-0.0268 1.6418-0.23822 1.6418-1.3405z"/>
<path d="m154.87 123.09c0.18891-1.4349-0.91481-1.9639-1.9333-2.0621l-12.882-1.2404c-0.78412-0.0756-1.6593 0.0218-1.8032 1.1146-0.14389 1.0928 0.69504 1.4166 1.4532 1.5434l12.764 2.136c1.0092 0.16887 2.2122-0.0566 2.4011-1.4915zm-89.484-11.781c0.14388-1.0928-0.67579-1.4134-1.4528-1.5433l-12.764-2.136c-1.0092-0.16875-2.2127 0.0565-2.4016 1.4914-0.18891 1.4349 0.91528 1.9642 1.9338 2.0622l12.882 1.2404c0.76521 0.0738 1.6588-0.0219 1.8027-1.1147z"/>
<path d="m153.5 129.96c0.37459-1.398-0.65064-2.0665-1.6476-2.2968l-12.61-2.9112c-0.76754-0.17729-1.648-0.19495-1.9333 0.86976-0.28529 1.0647 0.50419 1.4952 1.2394 1.7199l12.376 3.7837c0.9785 0.29915 2.2007 0.23269 2.5753-1.1653zm-87.181-23.36c0.2853-1.0647-0.48553-1.4895-1.2389-1.7197l-12.376-3.7837c-0.97854-0.29903-2.2012-0.2328-2.5758 1.1652-0.3746 1.398 0.65106 2.0669 1.6481 2.297l12.61 2.9112c0.74904 0.17301 1.6475 0.19482 1.9328-0.86989z"/>
<path d="m151.25 136.58c0.55386-1.3372-0.37534-2.1338-1.3337-2.4922l-12.122-4.5322c-0.73783-0.27597-1.6084-0.40842-2.0302 0.60998-0.42182 1.0184 0.30473 1.5482 1.0043 1.8669l11.776 5.3667c0.93109 0.42431 2.1515 0.51789 2.7054-0.8192zm-83.386-34.54c0.42183-1.0184-0.28694-1.5401-1.0038-1.8668l-11.776-5.3667c-0.93114-0.4242-2.1519-0.51812-2.7058 0.81901-0.55387 1.3372 0.37572 2.1342 1.3342 2.4924l12.122 4.5322c0.72002 0.26934 1.6079 0.40818 2.0298-0.61017z"/>
<path d="m148.16 142.86c0.72366-1.2534-0.0936-2.1645-0.99699-2.645l-11.427-6.0756c-0.69549-0.36991-1.5414-0.61484-2.0925 0.33975-0.55114 0.95461 0.10003 1.5747 0.75201 1.982l10.975 6.8579c0.86774 0.54221 2.0655 0.79433 2.7891-0.45908zm-78.164-45.128c0.55113-0.95459-0.08348-1.5644-0.75157-1.9818l-10.975-6.8579c-0.8678-0.5421-2.0659-0.79457-2.7896 0.45884-0.72366 1.2534 0.09393 2.165 0.99742 2.6452l11.427 6.0756c0.67874 0.36099 1.5409 0.61459 2.0921-0.34001z"/>
<path d="m144.27 148.68c0.88107-1.1482 0.18972-2.1582-0.64321-2.7525l-10.536-7.5151c-0.64127-0.45753-1.4479-0.81078-2.119 0.0637-0.67103 0.87449-0.10636 1.5743 0.48687 2.0632l9.9859 8.2318c0.78955 0.65084 1.9442 1.0571 2.8252-0.0911zm-71.605-54.945c0.67103-0.87449 0.12145-1.5619-0.48646-2.0629l-9.9859-8.2318c-0.78962-0.65075-1.9445-1.0574-2.8256 0.0908-0.88107 1.1482-0.18945 2.1587 0.64361 2.7528l10.536 7.5151c0.6258 0.44652 1.4475 0.81044 2.1185-0.064z"/>
<path d="m139.65 153.94c1.0234-1.0234 0.4698-2.115-0.27843-2.8129l-9.4648-8.8261c-0.57606-0.5373-1.3297-0.99281-2.1091-0.2134-0.77942 0.77944-0.31094 1.547 0.21341 2.1091l8.826 9.4648c0.69784 0.74832 1.7895 1.3018 2.8129 0.27845zm-63.821-63.821c0.77942-0.77942 0.32427-1.5327-0.21304-2.1088l-8.826-9.4648c-0.69792-0.74824-1.7899-1.3022-2.8133-0.27879-1.0234 1.0234-0.4696 2.1155 0.27879 2.8133l9.4648 8.826c0.56218 0.52435 1.3293 0.99246 2.1088 0.21304z"/>
<path d="m134.39 158.56c1.1482-0.88108 0.74184-2.0356 0.0911-2.8252l-8.2318-9.9859c-0.501-0.60791-1.1887-1.1579-2.0632-0.48687-0.8745 0.67102-0.51019 1.4931-0.0637 2.1189l7.5151 10.536c0.59421 0.833 1.6043 1.5242 2.7525 0.64323zm-54.945-71.605c0.8745-0.67101 0.52156-1.4773 0.06404-2.1185l-7.5151-10.536c-0.59429-0.83294-1.6046-1.5247-2.7528-0.64362-1.1482 0.88108-0.7417 2.0361-0.09079 2.8256l8.2318 9.986c0.48889 0.59326 1.1884 1.1575 2.0629 0.48645z"/>
<path d="m128.57 162.45c1.2534-0.72366 1.0012-1.9213 0.45909-2.7891l-6.8579-10.975c-0.41737-0.6681-1.0274-1.3032-1.982-0.75201-0.9546 0.55114-0.70074 1.4138-0.33976 2.0925l6.0756 11.427c0.48038 0.90344 1.3916 1.7206 2.645 0.99699zm-45.128-78.164c0.9546-0.55113 0.70989-1.3966 0.34002-2.092l-6.0756-11.427c-0.48046-0.90339-1.3918-1.7211-2.6452-0.99742-1.2534 0.72366-1.0012 1.9218-0.45883 2.7896l6.8579 10.975c0.40736 0.65197 1.0272 1.3027 1.9818 0.75157z"/>
<path d="m122.29 165.54c1.3371-0.55386 1.2434-1.7742 0.8192-2.7053l-5.3667-11.776c-0.32658-0.71686-0.84854-1.4261-1.8669-1.0043-1.0184 0.42181-0.87925 1.3102-0.60996 2.0302l4.5322 12.122c0.35835 0.95842 1.1551 1.8876 2.4922 1.3337zm-34.54-83.386c1.0184-0.42182 0.88614-1.292 0.61018-2.0298l-4.5322-12.122c-0.35846-0.95837-1.1553-1.888-2.4924-1.3342-1.3371 0.55387-1.2434 1.7748-0.81902 2.7058l5.3667 11.776c0.31869 0.69959 0.84837 1.4256 1.8667 1.0038z"/>
<path d="m115.67 167.79c1.398-0.37459 1.4644-1.5967 1.1653-2.5753l-3.7837-12.376c-0.23023-0.75335-0.65516-1.5247-1.7199-1.2394-1.0647 0.28529-1.0428 1.1842-0.86975 1.9333l2.9112 12.61c0.23018 0.99698 0.89882 2.0222 2.2968 1.6476zm-23.36-87.181c1.0647-0.28528 1.0472-1.1652 0.86989-1.9328l-2.9112-12.61c-0.2303-0.99695-0.89897-2.0227-2.297-1.6481-1.398 0.37459-1.4644 1.5973-1.1652 2.5758l3.7837 12.376c0.22469 0.7352 0.65502 1.5242 1.7197 1.2389z"/>
<path d="m108.8 169.16c1.4349-0.18892 1.6602-1.392 1.4915-2.4012l-2.136-12.764c-0.12992-0.77696-0.45051-1.5971-1.5434-1.4533-1.0928 0.14388-1.1884 1.038-1.1146 1.8032l1.2404 12.882c0.0981 1.0185 0.62724 2.1222 2.0621 1.9333zm-11.781-89.484c1.0928-0.14386 1.1903-1.0186 1.1148-1.8027l-1.2404-12.882c-0.0982-1.0185-0.62727-2.1227-2.0622-1.9338-1.4349 0.18891-1.6604 1.3925-1.4914 2.4016l2.136 12.764c0.12675 0.75823 0.45047 1.5966 1.5433 1.4527z"/>
</g>
<path d="m95.106 531.14c-25.577 0-51.155 4.4395-75.555 13.32l11.971 32.891c41.075-14.95 86.093-14.95 127.17 0l11.971-32.891c-24.4-8.8808-49.978-13.32-75.555-13.32z" color="#000000" color-rendering="auto" dominant-baseline="auto" fill="#0d1f32" image-rendering="auto" shape-rendering="auto" solid-color="#000000" style="font-feature-settings:normal;font-variant-alternates:normal;font-variant-caps:normal;font-variant-ligatures:normal;font-variant-numeric:normal;font-variant-position:normal;isolation:auto;mix-blend-mode:normal;shape-padding:0;text-decoration-color:#000000;text-decoration-line:none;text-decoration-style:solid;text-indent:0;text-orientation:mixed;text-transform:none;white-space:normal"/>
<path d="m136.92 524.03 33.745 20.427-8.2403 22.64c7.5142 2.7351 14.876 5.9289 22.039 9.5787 2.1261-8.4572-3.6961-16.161-4.9718-21.642 4.4838-2.9348 16.891-3.8267 20.86-9.5436-20.059-10.221-41.433-17.426-63.432-21.46z" color="#000000" color-rendering="auto" dominant-baseline="auto" fill="#0d1f32" image-rendering="auto" shape-rendering="auto" solid-color="#000000" style="font-feature-settings:normal;font-variant-alternates:normal;font-variant-caps:normal;font-variant-ligatures:normal;font-variant-numeric:normal;font-variant-position:normal;isolation:auto;mix-blend-mode:normal;shape-padding:0;text-decoration-color:#000000;text-decoration-line:none;text-decoration-style:solid;text-indent:0;text-orientation:mixed;text-transform:none;white-space:normal"/>
<path d="m53.296 524.03-33.745 20.427 8.2403 22.64c-7.5142 2.7351-14.876 5.9289-22.039 9.5787-2.1261-8.4572 3.6961-16.161 4.9718-21.642-4.4838-2.9348-16.891-3.8267-20.86-9.5436 20.059-10.221 41.433-17.426 63.432-21.46z" color="#000000" color-rendering="auto" dominant-baseline="auto" fill="#0d1f32" image-rendering="auto" shape-rendering="auto" solid-color="#000000" style="font-feature-settings:normal;font-variant-alternates:normal;font-variant-caps:normal;font-variant-ligatures:normal;font-variant-numeric:normal;font-variant-position:normal;isolation:auto;mix-blend-mode:normal;shape-padding:0;text-decoration-color:#000000;text-decoration-line:none;text-decoration-style:solid;text-indent:0;text-orientation:mixed;text-transform:none;white-space:normal"/>
<path d="m52.845 521.57c-22.236 4.0778-43.84 11.362-64.115 21.693l-2.5523 1.2992 1.6324 2.3533c2.6456 3.811 7.2564 5.4307 11.543 6.7753 3.2973 1.0343 6.182 1.9096 8.1835 2.7089-0.75309 2.091-1.786 4.3928-2.9197 7.475-1.4269 3.8794-2.5272 8.484-1.2888 13.41l0.76533 3.0427 2.7952-1.4237c6.325-3.2227 12.809-6.083 19.416-8.584l3.7243 10.232 2.3497-0.85524c40.523-14.749 84.934-14.749 125.46 0l2.3497 0.85524 3.7248-10.233c6.6073 2.5009 13.091 5.3607 19.416 8.5834l2.7947 1.4242 0.76481-3.0422c1.2384-4.926 0.13809-9.5301-1.2888-13.41-1.0645-2.894-2.3009-5.4935-3.0716-7.5313 2.0172-0.77732 5.1626-1.6583 8.3354-2.6536 4.2866-1.3446 8.8968-2.9638 11.542-6.7748l1.6335-2.3528-2.5523-1.3007c-20.276-10.331-41.88-17.613-64.115-21.691l-1.9094 10.743c-13.338-2.4498-26.845-3.6773-40.352-3.6773-13.507 0-27.014 1.2275-40.352 3.6773zm98.256 8.123c15.411 3.8798 30.414 9.3733 44.774 16.399-1.7254 1.0697-3.9931 2.0379-6.5112 2.8277-4.0304 1.2643-8.2148 2.0395-11.244 4.022l-1.4619 0.95705 0.39584 1.7017c0.76957 3.3063 2.5788 6.5438 3.8504 10.001 0.88657 2.4104 1.4799 4.8313 1.4805 7.2724-5.4886-2.6728-11.084-5.0852-16.771-7.2357l8.1003-22.256zm-112.07 0.047-22.533 13.641 3.345 9.1906 4.7682 13.103c-5.6952 2.1537-11.291 4.5861-16.787 7.2636-0.0104-2.4626 0.5899-4.9048 1.4841-7.336 1.2716-3.4572 3.0803-6.6941 3.8499-10l0.39635-1.7028-1.463-0.95702c-3.0289-1.9825-7.2139-2.7572-11.244-4.0215-2.4846-0.77936-4.723-1.7329-6.4415-2.7854 14.32-7.0025 29.26-12.52 44.625-16.394zm56.074 3.8964c24.463 0 48.904 4.201 72.313 12.418l-2.4572 6.751-5.7454 15.786h5.2e-4l-2.0578 5.6549c-40.195-14.027-83.911-14.027-124.11 0l-10.26-28.192c23.409-8.2168 47.849-12.418 72.312-12.418z" color="#000000" color-rendering="auto" dominant-baseline="auto" fill="#fff" image-rendering="auto" shape-rendering="auto" solid-color="#000000" style="font-feature-settings:normal;font-variant-alternates:normal;font-variant-caps:normal;font-variant-ligatures:normal;font-variant-numeric:normal;font-variant-position:normal;isolation:auto;mix-blend-mode:normal;shape-padding:0;text-decoration-color:#000000;text-decoration-line:none;text-decoration-style:solid;text-indent:0;text-orientation:mixed;text-transform:none;white-space:normal"/>
</g>
</g>
</svg>
